<mxfile host="app.diagrams.net" agent="Mozilla/5.0 (Windows NT 10.0; Win64; x64) AppleWebKit/537.36 (KHTML, like Gecko) Chrome/131.0.0.0 Safari/537.36 Edg/131.0.0.0" version="25.0.3">
  <diagram name="Page-1" id="ZGtvnsz0jv0aGfnBbfZy">
    <mxGraphModel dx="1226" dy="665" grid="1" gridSize="10" guides="1" tooltips="1" connect="1" arrows="1" fold="1" page="1" pageScale="1" pageWidth="827" pageHeight="1169" math="0" shadow="0">
      <root>
        <mxCell id="0" />
        <mxCell id="1" parent="0" />
        <mxCell id="7ncmW5lJr1daxvioZh1j-31" value="ADMIN" style="shape=table;startSize=25;container=1;collapsible=0;childLayout=tableLayout;fixedRows=1;rowLines=1;fontStyle=1;align=center;resizeLast=1;" vertex="1" parent="1">
          <mxGeometry x="1040" y="541" width="117" height="113" as="geometry" />
        </mxCell>
        <mxCell id="7ncmW5lJr1daxvioZh1j-32" style="shape=tableRow;horizontal=0;startSize=0;swimlaneHead=0;swimlaneBody=0;fillColor=none;collapsible=0;dropTarget=0;points=[[0,0.5],[1,0.5]];portConstraint=eastwest;top=0;left=0;right=0;bottom=0;" vertex="1" parent="7ncmW5lJr1daxvioZh1j-31">
          <mxGeometry y="25" width="117" height="22" as="geometry" />
        </mxCell>
        <mxCell id="7ncmW5lJr1daxvioZh1j-33" value="int" style="shape=partialRectangle;connectable=0;fillColor=none;top=0;left=0;bottom=0;right=0;align=left;spacingLeft=2;overflow=hidden;fontSize=11;" vertex="1" parent="7ncmW5lJr1daxvioZh1j-32">
          <mxGeometry width="42" height="22" as="geometry">
            <mxRectangle width="42" height="22" as="alternateBounds" />
          </mxGeometry>
        </mxCell>
        <mxCell id="7ncmW5lJr1daxvioZh1j-34" value="AdminID" style="shape=partialRectangle;connectable=0;fillColor=none;top=0;left=0;bottom=0;right=0;align=left;spacingLeft=2;overflow=hidden;fontSize=11;" vertex="1" parent="7ncmW5lJr1daxvioZh1j-32">
          <mxGeometry x="42" width="75" height="22" as="geometry">
            <mxRectangle width="75" height="22" as="alternateBounds" />
          </mxGeometry>
        </mxCell>
        <mxCell id="7ncmW5lJr1daxvioZh1j-35" style="shape=tableRow;horizontal=0;startSize=0;swimlaneHead=0;swimlaneBody=0;fillColor=none;collapsible=0;dropTarget=0;points=[[0,0.5],[1,0.5]];portConstraint=eastwest;top=0;left=0;right=0;bottom=0;" vertex="1" parent="7ncmW5lJr1daxvioZh1j-31">
          <mxGeometry y="47" width="117" height="22" as="geometry" />
        </mxCell>
        <mxCell id="7ncmW5lJr1daxvioZh1j-36" value="varchar" style="shape=partialRectangle;connectable=0;fillColor=none;top=0;left=0;bottom=0;right=0;align=left;spacingLeft=2;overflow=hidden;fontSize=11;" vertex="1" parent="7ncmW5lJr1daxvioZh1j-35">
          <mxGeometry width="42" height="22" as="geometry">
            <mxRectangle width="42" height="22" as="alternateBounds" />
          </mxGeometry>
        </mxCell>
        <mxCell id="7ncmW5lJr1daxvioZh1j-37" value="Name" style="shape=partialRectangle;connectable=0;fillColor=none;top=0;left=0;bottom=0;right=0;align=left;spacingLeft=2;overflow=hidden;fontSize=11;" vertex="1" parent="7ncmW5lJr1daxvioZh1j-35">
          <mxGeometry x="42" width="75" height="22" as="geometry">
            <mxRectangle width="75" height="22" as="alternateBounds" />
          </mxGeometry>
        </mxCell>
        <mxCell id="7ncmW5lJr1daxvioZh1j-38" style="shape=tableRow;horizontal=0;startSize=0;swimlaneHead=0;swimlaneBody=0;fillColor=none;collapsible=0;dropTarget=0;points=[[0,0.5],[1,0.5]];portConstraint=eastwest;top=0;left=0;right=0;bottom=0;" vertex="1" parent="7ncmW5lJr1daxvioZh1j-31">
          <mxGeometry y="69" width="117" height="22" as="geometry" />
        </mxCell>
        <mxCell id="7ncmW5lJr1daxvioZh1j-39" value="varchar" style="shape=partialRectangle;connectable=0;fillColor=none;top=0;left=0;bottom=0;right=0;align=left;spacingLeft=2;overflow=hidden;fontSize=11;" vertex="1" parent="7ncmW5lJr1daxvioZh1j-38">
          <mxGeometry width="42" height="22" as="geometry">
            <mxRectangle width="42" height="22" as="alternateBounds" />
          </mxGeometry>
        </mxCell>
        <mxCell id="7ncmW5lJr1daxvioZh1j-40" value="Email" style="shape=partialRectangle;connectable=0;fillColor=none;top=0;left=0;bottom=0;right=0;align=left;spacingLeft=2;overflow=hidden;fontSize=11;" vertex="1" parent="7ncmW5lJr1daxvioZh1j-38">
          <mxGeometry x="42" width="75" height="22" as="geometry">
            <mxRectangle width="75" height="22" as="alternateBounds" />
          </mxGeometry>
        </mxCell>
        <mxCell id="7ncmW5lJr1daxvioZh1j-41" style="shape=tableRow;horizontal=0;startSize=0;swimlaneHead=0;swimlaneBody=0;fillColor=none;collapsible=0;dropTarget=0;points=[[0,0.5],[1,0.5]];portConstraint=eastwest;top=0;left=0;right=0;bottom=0;" vertex="1" parent="7ncmW5lJr1daxvioZh1j-31">
          <mxGeometry y="91" width="117" height="22" as="geometry" />
        </mxCell>
        <mxCell id="7ncmW5lJr1daxvioZh1j-42" value="varchar" style="shape=partialRectangle;connectable=0;fillColor=none;top=0;left=0;bottom=0;right=0;align=left;spacingLeft=2;overflow=hidden;fontSize=11;" vertex="1" parent="7ncmW5lJr1daxvioZh1j-41">
          <mxGeometry width="42" height="22" as="geometry">
            <mxRectangle width="42" height="22" as="alternateBounds" />
          </mxGeometry>
        </mxCell>
        <mxCell id="7ncmW5lJr1daxvioZh1j-43" value="Phone" style="shape=partialRectangle;connectable=0;fillColor=none;top=0;left=0;bottom=0;right=0;align=left;spacingLeft=2;overflow=hidden;fontSize=11;" vertex="1" parent="7ncmW5lJr1daxvioZh1j-41">
          <mxGeometry x="42" width="75" height="22" as="geometry">
            <mxRectangle width="75" height="22" as="alternateBounds" />
          </mxGeometry>
        </mxCell>
        <mxCell id="7ncmW5lJr1daxvioZh1j-158" value="Customer" style="shape=table;startSize=25;container=1;collapsible=0;childLayout=tableLayout;fixedRows=1;rowLines=1;fontStyle=1;align=center;resizeLast=1;" vertex="1" parent="1">
          <mxGeometry x="220" y="1644" width="125" height="157" as="geometry" />
        </mxCell>
        <mxCell id="7ncmW5lJr1daxvioZh1j-159" style="shape=tableRow;horizontal=0;startSize=0;swimlaneHead=0;swimlaneBody=0;fillColor=none;collapsible=0;dropTarget=0;points=[[0,0.5],[1,0.5]];portConstraint=eastwest;top=0;left=0;right=0;bottom=0;" vertex="1" parent="7ncmW5lJr1daxvioZh1j-158">
          <mxGeometry y="25" width="125" height="22" as="geometry" />
        </mxCell>
        <mxCell id="7ncmW5lJr1daxvioZh1j-160" value="int" style="shape=partialRectangle;connectable=0;fillColor=none;top=0;left=0;bottom=0;right=0;align=left;spacingLeft=2;overflow=hidden;fontSize=11;" vertex="1" parent="7ncmW5lJr1daxvioZh1j-159">
          <mxGeometry width="36" height="22" as="geometry">
            <mxRectangle width="36" height="22" as="alternateBounds" />
          </mxGeometry>
        </mxCell>
        <mxCell id="7ncmW5lJr1daxvioZh1j-161" value="customer_id" style="shape=partialRectangle;connectable=0;fillColor=none;top=0;left=0;bottom=0;right=0;align=left;spacingLeft=2;overflow=hidden;fontSize=11;" vertex="1" parent="7ncmW5lJr1daxvioZh1j-159">
          <mxGeometry x="36" width="89" height="22" as="geometry">
            <mxRectangle width="89" height="22" as="alternateBounds" />
          </mxGeometry>
        </mxCell>
        <mxCell id="7ncmW5lJr1daxvioZh1j-162" style="shape=tableRow;horizontal=0;startSize=0;swimlaneHead=0;swimlaneBody=0;fillColor=none;collapsible=0;dropTarget=0;points=[[0,0.5],[1,0.5]];portConstraint=eastwest;top=0;left=0;right=0;bottom=0;" vertex="1" parent="7ncmW5lJr1daxvioZh1j-158">
          <mxGeometry y="47" width="125" height="22" as="geometry" />
        </mxCell>
        <mxCell id="7ncmW5lJr1daxvioZh1j-163" value="string" style="shape=partialRectangle;connectable=0;fillColor=none;top=0;left=0;bottom=0;right=0;align=left;spacingLeft=2;overflow=hidden;fontSize=11;" vertex="1" parent="7ncmW5lJr1daxvioZh1j-162">
          <mxGeometry width="36" height="22" as="geometry">
            <mxRectangle width="36" height="22" as="alternateBounds" />
          </mxGeometry>
        </mxCell>
        <mxCell id="7ncmW5lJr1daxvioZh1j-164" value="name" style="shape=partialRectangle;connectable=0;fillColor=none;top=0;left=0;bottom=0;right=0;align=left;spacingLeft=2;overflow=hidden;fontSize=11;" vertex="1" parent="7ncmW5lJr1daxvioZh1j-162">
          <mxGeometry x="36" width="89" height="22" as="geometry">
            <mxRectangle width="89" height="22" as="alternateBounds" />
          </mxGeometry>
        </mxCell>
        <mxCell id="7ncmW5lJr1daxvioZh1j-165" style="shape=tableRow;horizontal=0;startSize=0;swimlaneHead=0;swimlaneBody=0;fillColor=none;collapsible=0;dropTarget=0;points=[[0,0.5],[1,0.5]];portConstraint=eastwest;top=0;left=0;right=0;bottom=0;" vertex="1" parent="7ncmW5lJr1daxvioZh1j-158">
          <mxGeometry y="69" width="125" height="22" as="geometry" />
        </mxCell>
        <mxCell id="7ncmW5lJr1daxvioZh1j-166" value="string" style="shape=partialRectangle;connectable=0;fillColor=none;top=0;left=0;bottom=0;right=0;align=left;spacingLeft=2;overflow=hidden;fontSize=11;" vertex="1" parent="7ncmW5lJr1daxvioZh1j-165">
          <mxGeometry width="36" height="22" as="geometry">
            <mxRectangle width="36" height="22" as="alternateBounds" />
          </mxGeometry>
        </mxCell>
        <mxCell id="7ncmW5lJr1daxvioZh1j-167" value="email" style="shape=partialRectangle;connectable=0;fillColor=none;top=0;left=0;bottom=0;right=0;align=left;spacingLeft=2;overflow=hidden;fontSize=11;" vertex="1" parent="7ncmW5lJr1daxvioZh1j-165">
          <mxGeometry x="36" width="89" height="22" as="geometry">
            <mxRectangle width="89" height="22" as="alternateBounds" />
          </mxGeometry>
        </mxCell>
        <mxCell id="7ncmW5lJr1daxvioZh1j-168" style="shape=tableRow;horizontal=0;startSize=0;swimlaneHead=0;swimlaneBody=0;fillColor=none;collapsible=0;dropTarget=0;points=[[0,0.5],[1,0.5]];portConstraint=eastwest;top=0;left=0;right=0;bottom=0;" vertex="1" parent="7ncmW5lJr1daxvioZh1j-158">
          <mxGeometry y="91" width="125" height="22" as="geometry" />
        </mxCell>
        <mxCell id="7ncmW5lJr1daxvioZh1j-169" value="string" style="shape=partialRectangle;connectable=0;fillColor=none;top=0;left=0;bottom=0;right=0;align=left;spacingLeft=2;overflow=hidden;fontSize=11;" vertex="1" parent="7ncmW5lJr1daxvioZh1j-168">
          <mxGeometry width="36" height="22" as="geometry">
            <mxRectangle width="36" height="22" as="alternateBounds" />
          </mxGeometry>
        </mxCell>
        <mxCell id="7ncmW5lJr1daxvioZh1j-170" value="password" style="shape=partialRectangle;connectable=0;fillColor=none;top=0;left=0;bottom=0;right=0;align=left;spacingLeft=2;overflow=hidden;fontSize=11;" vertex="1" parent="7ncmW5lJr1daxvioZh1j-168">
          <mxGeometry x="36" width="89" height="22" as="geometry">
            <mxRectangle width="89" height="22" as="alternateBounds" />
          </mxGeometry>
        </mxCell>
        <mxCell id="7ncmW5lJr1daxvioZh1j-171" style="shape=tableRow;horizontal=0;startSize=0;swimlaneHead=0;swimlaneBody=0;fillColor=none;collapsible=0;dropTarget=0;points=[[0,0.5],[1,0.5]];portConstraint=eastwest;top=0;left=0;right=0;bottom=0;" vertex="1" parent="7ncmW5lJr1daxvioZh1j-158">
          <mxGeometry y="113" width="125" height="22" as="geometry" />
        </mxCell>
        <mxCell id="7ncmW5lJr1daxvioZh1j-172" value="string" style="shape=partialRectangle;connectable=0;fillColor=none;top=0;left=0;bottom=0;right=0;align=left;spacingLeft=2;overflow=hidden;fontSize=11;" vertex="1" parent="7ncmW5lJr1daxvioZh1j-171">
          <mxGeometry width="36" height="22" as="geometry">
            <mxRectangle width="36" height="22" as="alternateBounds" />
          </mxGeometry>
        </mxCell>
        <mxCell id="7ncmW5lJr1daxvioZh1j-173" value="address" style="shape=partialRectangle;connectable=0;fillColor=none;top=0;left=0;bottom=0;right=0;align=left;spacingLeft=2;overflow=hidden;fontSize=11;" vertex="1" parent="7ncmW5lJr1daxvioZh1j-171">
          <mxGeometry x="36" width="89" height="22" as="geometry">
            <mxRectangle width="89" height="22" as="alternateBounds" />
          </mxGeometry>
        </mxCell>
        <mxCell id="7ncmW5lJr1daxvioZh1j-174" style="shape=tableRow;horizontal=0;startSize=0;swimlaneHead=0;swimlaneBody=0;fillColor=none;collapsible=0;dropTarget=0;points=[[0,0.5],[1,0.5]];portConstraint=eastwest;top=0;left=0;right=0;bottom=0;" vertex="1" parent="7ncmW5lJr1daxvioZh1j-158">
          <mxGeometry y="135" width="125" height="22" as="geometry" />
        </mxCell>
        <mxCell id="7ncmW5lJr1daxvioZh1j-175" value="string" style="shape=partialRectangle;connectable=0;fillColor=none;top=0;left=0;bottom=0;right=0;align=left;spacingLeft=2;overflow=hidden;fontSize=11;" vertex="1" parent="7ncmW5lJr1daxvioZh1j-174">
          <mxGeometry width="36" height="22" as="geometry">
            <mxRectangle width="36" height="22" as="alternateBounds" />
          </mxGeometry>
        </mxCell>
        <mxCell id="7ncmW5lJr1daxvioZh1j-176" value="phone" style="shape=partialRectangle;connectable=0;fillColor=none;top=0;left=0;bottom=0;right=0;align=left;spacingLeft=2;overflow=hidden;fontSize=11;" vertex="1" parent="7ncmW5lJr1daxvioZh1j-174">
          <mxGeometry x="36" width="89" height="22" as="geometry">
            <mxRectangle width="89" height="22" as="alternateBounds" />
          </mxGeometry>
        </mxCell>
        <mxCell id="7ncmW5lJr1daxvioZh1j-177" value="Order" style="shape=table;startSize=25;container=1;collapsible=0;childLayout=tableLayout;fixedRows=1;rowLines=1;fontStyle=1;align=center;resizeLast=1;" vertex="1" parent="1">
          <mxGeometry x="540" y="1910" width="131" height="135" as="geometry" />
        </mxCell>
        <mxCell id="7ncmW5lJr1daxvioZh1j-178" style="shape=tableRow;horizontal=0;startSize=0;swimlaneHead=0;swimlaneBody=0;fillColor=none;collapsible=0;dropTarget=0;points=[[0,0.5],[1,0.5]];portConstraint=eastwest;top=0;left=0;right=0;bottom=0;" vertex="1" parent="7ncmW5lJr1daxvioZh1j-177">
          <mxGeometry y="25" width="131" height="22" as="geometry" />
        </mxCell>
        <mxCell id="7ncmW5lJr1daxvioZh1j-179" value="int" style="shape=partialRectangle;connectable=0;fillColor=none;top=0;left=0;bottom=0;right=0;align=left;spacingLeft=2;overflow=hidden;fontSize=11;" vertex="1" parent="7ncmW5lJr1daxvioZh1j-178">
          <mxGeometry width="36" height="22" as="geometry">
            <mxRectangle width="36" height="22" as="alternateBounds" />
          </mxGeometry>
        </mxCell>
        <mxCell id="7ncmW5lJr1daxvioZh1j-180" value="order_id" style="shape=partialRectangle;connectable=0;fillColor=none;top=0;left=0;bottom=0;right=0;align=left;spacingLeft=2;overflow=hidden;fontSize=11;" vertex="1" parent="7ncmW5lJr1daxvioZh1j-178">
          <mxGeometry x="36" width="95" height="22" as="geometry">
            <mxRectangle width="95" height="22" as="alternateBounds" />
          </mxGeometry>
        </mxCell>
        <mxCell id="7ncmW5lJr1daxvioZh1j-181" style="shape=tableRow;horizontal=0;startSize=0;swimlaneHead=0;swimlaneBody=0;fillColor=none;collapsible=0;dropTarget=0;points=[[0,0.5],[1,0.5]];portConstraint=eastwest;top=0;left=0;right=0;bottom=0;" vertex="1" parent="7ncmW5lJr1daxvioZh1j-177">
          <mxGeometry y="47" width="131" height="22" as="geometry" />
        </mxCell>
        <mxCell id="7ncmW5lJr1daxvioZh1j-182" value="int" style="shape=partialRectangle;connectable=0;fillColor=none;top=0;left=0;bottom=0;right=0;align=left;spacingLeft=2;overflow=hidden;fontSize=11;" vertex="1" parent="7ncmW5lJr1daxvioZh1j-181">
          <mxGeometry width="36" height="22" as="geometry">
            <mxRectangle width="36" height="22" as="alternateBounds" />
          </mxGeometry>
        </mxCell>
        <mxCell id="7ncmW5lJr1daxvioZh1j-183" value="customer_id" style="shape=partialRectangle;connectable=0;fillColor=none;top=0;left=0;bottom=0;right=0;align=left;spacingLeft=2;overflow=hidden;fontSize=11;" vertex="1" parent="7ncmW5lJr1daxvioZh1j-181">
          <mxGeometry x="36" width="95" height="22" as="geometry">
            <mxRectangle width="95" height="22" as="alternateBounds" />
          </mxGeometry>
        </mxCell>
        <mxCell id="7ncmW5lJr1daxvioZh1j-184" style="shape=tableRow;horizontal=0;startSize=0;swimlaneHead=0;swimlaneBody=0;fillColor=none;collapsible=0;dropTarget=0;points=[[0,0.5],[1,0.5]];portConstraint=eastwest;top=0;left=0;right=0;bottom=0;" vertex="1" parent="7ncmW5lJr1daxvioZh1j-177">
          <mxGeometry y="69" width="131" height="22" as="geometry" />
        </mxCell>
        <mxCell id="7ncmW5lJr1daxvioZh1j-185" value="date" style="shape=partialRectangle;connectable=0;fillColor=none;top=0;left=0;bottom=0;right=0;align=left;spacingLeft=2;overflow=hidden;fontSize=11;" vertex="1" parent="7ncmW5lJr1daxvioZh1j-184">
          <mxGeometry width="36" height="22" as="geometry">
            <mxRectangle width="36" height="22" as="alternateBounds" />
          </mxGeometry>
        </mxCell>
        <mxCell id="7ncmW5lJr1daxvioZh1j-186" value="order_date" style="shape=partialRectangle;connectable=0;fillColor=none;top=0;left=0;bottom=0;right=0;align=left;spacingLeft=2;overflow=hidden;fontSize=11;" vertex="1" parent="7ncmW5lJr1daxvioZh1j-184">
          <mxGeometry x="36" width="95" height="22" as="geometry">
            <mxRectangle width="95" height="22" as="alternateBounds" />
          </mxGeometry>
        </mxCell>
        <mxCell id="7ncmW5lJr1daxvioZh1j-187" style="shape=tableRow;horizontal=0;startSize=0;swimlaneHead=0;swimlaneBody=0;fillColor=none;collapsible=0;dropTarget=0;points=[[0,0.5],[1,0.5]];portConstraint=eastwest;top=0;left=0;right=0;bottom=0;" vertex="1" parent="7ncmW5lJr1daxvioZh1j-177">
          <mxGeometry y="91" width="131" height="22" as="geometry" />
        </mxCell>
        <mxCell id="7ncmW5lJr1daxvioZh1j-188" value="string" style="shape=partialRectangle;connectable=0;fillColor=none;top=0;left=0;bottom=0;right=0;align=left;spacingLeft=2;overflow=hidden;fontSize=11;" vertex="1" parent="7ncmW5lJr1daxvioZh1j-187">
          <mxGeometry width="36" height="22" as="geometry">
            <mxRectangle width="36" height="22" as="alternateBounds" />
          </mxGeometry>
        </mxCell>
        <mxCell id="7ncmW5lJr1daxvioZh1j-189" value="status" style="shape=partialRectangle;connectable=0;fillColor=none;top=0;left=0;bottom=0;right=0;align=left;spacingLeft=2;overflow=hidden;fontSize=11;" vertex="1" parent="7ncmW5lJr1daxvioZh1j-187">
          <mxGeometry x="36" width="95" height="22" as="geometry">
            <mxRectangle width="95" height="22" as="alternateBounds" />
          </mxGeometry>
        </mxCell>
        <mxCell id="7ncmW5lJr1daxvioZh1j-190" style="shape=tableRow;horizontal=0;startSize=0;swimlaneHead=0;swimlaneBody=0;fillColor=none;collapsible=0;dropTarget=0;points=[[0,0.5],[1,0.5]];portConstraint=eastwest;top=0;left=0;right=0;bottom=0;" vertex="1" parent="7ncmW5lJr1daxvioZh1j-177">
          <mxGeometry y="113" width="131" height="22" as="geometry" />
        </mxCell>
        <mxCell id="7ncmW5lJr1daxvioZh1j-191" value="float" style="shape=partialRectangle;connectable=0;fillColor=none;top=0;left=0;bottom=0;right=0;align=left;spacingLeft=2;overflow=hidden;fontSize=11;" vertex="1" parent="7ncmW5lJr1daxvioZh1j-190">
          <mxGeometry width="36" height="22" as="geometry">
            <mxRectangle width="36" height="22" as="alternateBounds" />
          </mxGeometry>
        </mxCell>
        <mxCell id="7ncmW5lJr1daxvioZh1j-192" value="total_amount" style="shape=partialRectangle;connectable=0;fillColor=none;top=0;left=0;bottom=0;right=0;align=left;spacingLeft=2;overflow=hidden;fontSize=11;" vertex="1" parent="7ncmW5lJr1daxvioZh1j-190">
          <mxGeometry x="36" width="95" height="22" as="geometry">
            <mxRectangle width="95" height="22" as="alternateBounds" />
          </mxGeometry>
        </mxCell>
        <mxCell id="7ncmW5lJr1daxvioZh1j-193" value="OrderItem" style="shape=table;startSize=25;container=1;collapsible=0;childLayout=tableLayout;fixedRows=1;rowLines=1;fontStyle=1;align=center;resizeLast=1;" vertex="1" parent="1">
          <mxGeometry x="756" y="2155" width="129" height="113" as="geometry" />
        </mxCell>
        <mxCell id="7ncmW5lJr1daxvioZh1j-194" style="shape=tableRow;horizontal=0;startSize=0;swimlaneHead=0;swimlaneBody=0;fillColor=none;collapsible=0;dropTarget=0;points=[[0,0.5],[1,0.5]];portConstraint=eastwest;top=0;left=0;right=0;bottom=0;" vertex="1" parent="7ncmW5lJr1daxvioZh1j-193">
          <mxGeometry y="25" width="129" height="22" as="geometry" />
        </mxCell>
        <mxCell id="7ncmW5lJr1daxvioZh1j-195" value="int" style="shape=partialRectangle;connectable=0;fillColor=none;top=0;left=0;bottom=0;right=0;align=left;spacingLeft=2;overflow=hidden;fontSize=11;" vertex="1" parent="7ncmW5lJr1daxvioZh1j-194">
          <mxGeometry width="30" height="22" as="geometry">
            <mxRectangle width="30" height="22" as="alternateBounds" />
          </mxGeometry>
        </mxCell>
        <mxCell id="7ncmW5lJr1daxvioZh1j-196" value="order_id" style="shape=partialRectangle;connectable=0;fillColor=none;top=0;left=0;bottom=0;right=0;align=left;spacingLeft=2;overflow=hidden;fontSize=11;" vertex="1" parent="7ncmW5lJr1daxvioZh1j-194">
          <mxGeometry x="30" width="99" height="22" as="geometry">
            <mxRectangle width="99" height="22" as="alternateBounds" />
          </mxGeometry>
        </mxCell>
        <mxCell id="7ncmW5lJr1daxvioZh1j-197" style="shape=tableRow;horizontal=0;startSize=0;swimlaneHead=0;swimlaneBody=0;fillColor=none;collapsible=0;dropTarget=0;points=[[0,0.5],[1,0.5]];portConstraint=eastwest;top=0;left=0;right=0;bottom=0;" vertex="1" parent="7ncmW5lJr1daxvioZh1j-193">
          <mxGeometry y="47" width="129" height="22" as="geometry" />
        </mxCell>
        <mxCell id="7ncmW5lJr1daxvioZh1j-198" value="int" style="shape=partialRectangle;connectable=0;fillColor=none;top=0;left=0;bottom=0;right=0;align=left;spacingLeft=2;overflow=hidden;fontSize=11;" vertex="1" parent="7ncmW5lJr1daxvioZh1j-197">
          <mxGeometry width="30" height="22" as="geometry">
            <mxRectangle width="30" height="22" as="alternateBounds" />
          </mxGeometry>
        </mxCell>
        <mxCell id="7ncmW5lJr1daxvioZh1j-199" value="product_id" style="shape=partialRectangle;connectable=0;fillColor=none;top=0;left=0;bottom=0;right=0;align=left;spacingLeft=2;overflow=hidden;fontSize=11;" vertex="1" parent="7ncmW5lJr1daxvioZh1j-197">
          <mxGeometry x="30" width="99" height="22" as="geometry">
            <mxRectangle width="99" height="22" as="alternateBounds" />
          </mxGeometry>
        </mxCell>
        <mxCell id="7ncmW5lJr1daxvioZh1j-200" style="shape=tableRow;horizontal=0;startSize=0;swimlaneHead=0;swimlaneBody=0;fillColor=none;collapsible=0;dropTarget=0;points=[[0,0.5],[1,0.5]];portConstraint=eastwest;top=0;left=0;right=0;bottom=0;" vertex="1" parent="7ncmW5lJr1daxvioZh1j-193">
          <mxGeometry y="69" width="129" height="22" as="geometry" />
        </mxCell>
        <mxCell id="7ncmW5lJr1daxvioZh1j-201" value="int" style="shape=partialRectangle;connectable=0;fillColor=none;top=0;left=0;bottom=0;right=0;align=left;spacingLeft=2;overflow=hidden;fontSize=11;" vertex="1" parent="7ncmW5lJr1daxvioZh1j-200">
          <mxGeometry width="30" height="22" as="geometry">
            <mxRectangle width="30" height="22" as="alternateBounds" />
          </mxGeometry>
        </mxCell>
        <mxCell id="7ncmW5lJr1daxvioZh1j-202" value="quantity" style="shape=partialRectangle;connectable=0;fillColor=none;top=0;left=0;bottom=0;right=0;align=left;spacingLeft=2;overflow=hidden;fontSize=11;" vertex="1" parent="7ncmW5lJr1daxvioZh1j-200">
          <mxGeometry x="30" width="99" height="22" as="geometry">
            <mxRectangle width="99" height="22" as="alternateBounds" />
          </mxGeometry>
        </mxCell>
        <mxCell id="7ncmW5lJr1daxvioZh1j-203" style="shape=tableRow;horizontal=0;startSize=0;swimlaneHead=0;swimlaneBody=0;fillColor=none;collapsible=0;dropTarget=0;points=[[0,0.5],[1,0.5]];portConstraint=eastwest;top=0;left=0;right=0;bottom=0;" vertex="1" parent="7ncmW5lJr1daxvioZh1j-193">
          <mxGeometry y="91" width="129" height="22" as="geometry" />
        </mxCell>
        <mxCell id="7ncmW5lJr1daxvioZh1j-204" value="float" style="shape=partialRectangle;connectable=0;fillColor=none;top=0;left=0;bottom=0;right=0;align=left;spacingLeft=2;overflow=hidden;fontSize=11;" vertex="1" parent="7ncmW5lJr1daxvioZh1j-203">
          <mxGeometry width="30" height="22" as="geometry">
            <mxRectangle width="30" height="22" as="alternateBounds" />
          </mxGeometry>
        </mxCell>
        <mxCell id="7ncmW5lJr1daxvioZh1j-205" value="unit_price" style="shape=partialRectangle;connectable=0;fillColor=none;top=0;left=0;bottom=0;right=0;align=left;spacingLeft=2;overflow=hidden;fontSize=11;" vertex="1" parent="7ncmW5lJr1daxvioZh1j-203">
          <mxGeometry x="30" width="99" height="22" as="geometry">
            <mxRectangle width="99" height="22" as="alternateBounds" />
          </mxGeometry>
        </mxCell>
        <mxCell id="7ncmW5lJr1daxvioZh1j-206" value="Product" style="shape=table;startSize=25;container=1;collapsible=0;childLayout=tableLayout;fixedRows=1;rowLines=1;fontStyle=1;align=center;resizeLast=1;" vertex="1" parent="1">
          <mxGeometry x="1054" y="1899" width="136" height="157" as="geometry" />
        </mxCell>
        <mxCell id="7ncmW5lJr1daxvioZh1j-207" style="shape=tableRow;horizontal=0;startSize=0;swimlaneHead=0;swimlaneBody=0;fillColor=none;collapsible=0;dropTarget=0;points=[[0,0.5],[1,0.5]];portConstraint=eastwest;top=0;left=0;right=0;bottom=0;" vertex="1" parent="7ncmW5lJr1daxvioZh1j-206">
          <mxGeometry y="25" width="136" height="22" as="geometry" />
        </mxCell>
        <mxCell id="7ncmW5lJr1daxvioZh1j-208" value="int" style="shape=partialRectangle;connectable=0;fillColor=none;top=0;left=0;bottom=0;right=0;align=left;spacingLeft=2;overflow=hidden;fontSize=11;" vertex="1" parent="7ncmW5lJr1daxvioZh1j-207">
          <mxGeometry width="36" height="22" as="geometry">
            <mxRectangle width="36" height="22" as="alternateBounds" />
          </mxGeometry>
        </mxCell>
        <mxCell id="7ncmW5lJr1daxvioZh1j-209" value="product_id" style="shape=partialRectangle;connectable=0;fillColor=none;top=0;left=0;bottom=0;right=0;align=left;spacingLeft=2;overflow=hidden;fontSize=11;" vertex="1" parent="7ncmW5lJr1daxvioZh1j-207">
          <mxGeometry x="36" width="100" height="22" as="geometry">
            <mxRectangle width="100" height="22" as="alternateBounds" />
          </mxGeometry>
        </mxCell>
        <mxCell id="7ncmW5lJr1daxvioZh1j-210" style="shape=tableRow;horizontal=0;startSize=0;swimlaneHead=0;swimlaneBody=0;fillColor=none;collapsible=0;dropTarget=0;points=[[0,0.5],[1,0.5]];portConstraint=eastwest;top=0;left=0;right=0;bottom=0;" vertex="1" parent="7ncmW5lJr1daxvioZh1j-206">
          <mxGeometry y="47" width="136" height="22" as="geometry" />
        </mxCell>
        <mxCell id="7ncmW5lJr1daxvioZh1j-211" value="int" style="shape=partialRectangle;connectable=0;fillColor=none;top=0;left=0;bottom=0;right=0;align=left;spacingLeft=2;overflow=hidden;fontSize=11;" vertex="1" parent="7ncmW5lJr1daxvioZh1j-210">
          <mxGeometry width="36" height="22" as="geometry">
            <mxRectangle width="36" height="22" as="alternateBounds" />
          </mxGeometry>
        </mxCell>
        <mxCell id="7ncmW5lJr1daxvioZh1j-212" value="supplier_id" style="shape=partialRectangle;connectable=0;fillColor=none;top=0;left=0;bottom=0;right=0;align=left;spacingLeft=2;overflow=hidden;fontSize=11;" vertex="1" parent="7ncmW5lJr1daxvioZh1j-210">
          <mxGeometry x="36" width="100" height="22" as="geometry">
            <mxRectangle width="100" height="22" as="alternateBounds" />
          </mxGeometry>
        </mxCell>
        <mxCell id="7ncmW5lJr1daxvioZh1j-213" style="shape=tableRow;horizontal=0;startSize=0;swimlaneHead=0;swimlaneBody=0;fillColor=none;collapsible=0;dropTarget=0;points=[[0,0.5],[1,0.5]];portConstraint=eastwest;top=0;left=0;right=0;bottom=0;" vertex="1" parent="7ncmW5lJr1daxvioZh1j-206">
          <mxGeometry y="69" width="136" height="22" as="geometry" />
        </mxCell>
        <mxCell id="7ncmW5lJr1daxvioZh1j-214" value="string" style="shape=partialRectangle;connectable=0;fillColor=none;top=0;left=0;bottom=0;right=0;align=left;spacingLeft=2;overflow=hidden;fontSize=11;" vertex="1" parent="7ncmW5lJr1daxvioZh1j-213">
          <mxGeometry width="36" height="22" as="geometry">
            <mxRectangle width="36" height="22" as="alternateBounds" />
          </mxGeometry>
        </mxCell>
        <mxCell id="7ncmW5lJr1daxvioZh1j-215" value="name" style="shape=partialRectangle;connectable=0;fillColor=none;top=0;left=0;bottom=0;right=0;align=left;spacingLeft=2;overflow=hidden;fontSize=11;" vertex="1" parent="7ncmW5lJr1daxvioZh1j-213">
          <mxGeometry x="36" width="100" height="22" as="geometry">
            <mxRectangle width="100" height="22" as="alternateBounds" />
          </mxGeometry>
        </mxCell>
        <mxCell id="7ncmW5lJr1daxvioZh1j-216" style="shape=tableRow;horizontal=0;startSize=0;swimlaneHead=0;swimlaneBody=0;fillColor=none;collapsible=0;dropTarget=0;points=[[0,0.5],[1,0.5]];portConstraint=eastwest;top=0;left=0;right=0;bottom=0;" vertex="1" parent="7ncmW5lJr1daxvioZh1j-206">
          <mxGeometry y="91" width="136" height="22" as="geometry" />
        </mxCell>
        <mxCell id="7ncmW5lJr1daxvioZh1j-217" value="float" style="shape=partialRectangle;connectable=0;fillColor=none;top=0;left=0;bottom=0;right=0;align=left;spacingLeft=2;overflow=hidden;fontSize=11;" vertex="1" parent="7ncmW5lJr1daxvioZh1j-216">
          <mxGeometry width="36" height="22" as="geometry">
            <mxRectangle width="36" height="22" as="alternateBounds" />
          </mxGeometry>
        </mxCell>
        <mxCell id="7ncmW5lJr1daxvioZh1j-218" value="price" style="shape=partialRectangle;connectable=0;fillColor=none;top=0;left=0;bottom=0;right=0;align=left;spacingLeft=2;overflow=hidden;fontSize=11;" vertex="1" parent="7ncmW5lJr1daxvioZh1j-216">
          <mxGeometry x="36" width="100" height="22" as="geometry">
            <mxRectangle width="100" height="22" as="alternateBounds" />
          </mxGeometry>
        </mxCell>
        <mxCell id="7ncmW5lJr1daxvioZh1j-219" style="shape=tableRow;horizontal=0;startSize=0;swimlaneHead=0;swimlaneBody=0;fillColor=none;collapsible=0;dropTarget=0;points=[[0,0.5],[1,0.5]];portConstraint=eastwest;top=0;left=0;right=0;bottom=0;" vertex="1" parent="7ncmW5lJr1daxvioZh1j-206">
          <mxGeometry y="113" width="136" height="22" as="geometry" />
        </mxCell>
        <mxCell id="7ncmW5lJr1daxvioZh1j-220" value="int" style="shape=partialRectangle;connectable=0;fillColor=none;top=0;left=0;bottom=0;right=0;align=left;spacingLeft=2;overflow=hidden;fontSize=11;" vertex="1" parent="7ncmW5lJr1daxvioZh1j-219">
          <mxGeometry width="36" height="22" as="geometry">
            <mxRectangle width="36" height="22" as="alternateBounds" />
          </mxGeometry>
        </mxCell>
        <mxCell id="7ncmW5lJr1daxvioZh1j-221" value="stock_quantity" style="shape=partialRectangle;connectable=0;fillColor=none;top=0;left=0;bottom=0;right=0;align=left;spacingLeft=2;overflow=hidden;fontSize=11;" vertex="1" parent="7ncmW5lJr1daxvioZh1j-219">
          <mxGeometry x="36" width="100" height="22" as="geometry">
            <mxRectangle width="100" height="22" as="alternateBounds" />
          </mxGeometry>
        </mxCell>
        <mxCell id="7ncmW5lJr1daxvioZh1j-222" style="shape=tableRow;horizontal=0;startSize=0;swimlaneHead=0;swimlaneBody=0;fillColor=none;collapsible=0;dropTarget=0;points=[[0,0.5],[1,0.5]];portConstraint=eastwest;top=0;left=0;right=0;bottom=0;" vertex="1" parent="7ncmW5lJr1daxvioZh1j-206">
          <mxGeometry y="135" width="136" height="22" as="geometry" />
        </mxCell>
        <mxCell id="7ncmW5lJr1daxvioZh1j-223" value="string" style="shape=partialRectangle;connectable=0;fillColor=none;top=0;left=0;bottom=0;right=0;align=left;spacingLeft=2;overflow=hidden;fontSize=11;" vertex="1" parent="7ncmW5lJr1daxvioZh1j-222">
          <mxGeometry width="36" height="22" as="geometry">
            <mxRectangle width="36" height="22" as="alternateBounds" />
          </mxGeometry>
        </mxCell>
        <mxCell id="7ncmW5lJr1daxvioZh1j-224" value="description" style="shape=partialRectangle;connectable=0;fillColor=none;top=0;left=0;bottom=0;right=0;align=left;spacingLeft=2;overflow=hidden;fontSize=11;" vertex="1" parent="7ncmW5lJr1daxvioZh1j-222">
          <mxGeometry x="36" width="100" height="22" as="geometry">
            <mxRectangle width="100" height="22" as="alternateBounds" />
          </mxGeometry>
        </mxCell>
        <mxCell id="7ncmW5lJr1daxvioZh1j-225" value="Supplier" style="shape=table;startSize=25;container=1;collapsible=0;childLayout=tableLayout;fixedRows=1;rowLines=1;fontStyle=1;align=center;resizeLast=1;" vertex="1" parent="1">
          <mxGeometry x="750" y="1840" width="119" height="135" as="geometry" />
        </mxCell>
        <mxCell id="7ncmW5lJr1daxvioZh1j-226" style="shape=tableRow;horizontal=0;startSize=0;swimlaneHead=0;swimlaneBody=0;fillColor=none;collapsible=0;dropTarget=0;points=[[0,0.5],[1,0.5]];portConstraint=eastwest;top=0;left=0;right=0;bottom=0;" vertex="1" parent="7ncmW5lJr1daxvioZh1j-225">
          <mxGeometry y="25" width="119" height="22" as="geometry" />
        </mxCell>
        <mxCell id="7ncmW5lJr1daxvioZh1j-227" value="int" style="shape=partialRectangle;connectable=0;fillColor=none;top=0;left=0;bottom=0;right=0;align=left;spacingLeft=2;overflow=hidden;fontSize=11;" vertex="1" parent="7ncmW5lJr1daxvioZh1j-226">
          <mxGeometry width="36" height="22" as="geometry">
            <mxRectangle width="36" height="22" as="alternateBounds" />
          </mxGeometry>
        </mxCell>
        <mxCell id="7ncmW5lJr1daxvioZh1j-228" value="supplier_id" style="shape=partialRectangle;connectable=0;fillColor=none;top=0;left=0;bottom=0;right=0;align=left;spacingLeft=2;overflow=hidden;fontSize=11;" vertex="1" parent="7ncmW5lJr1daxvioZh1j-226">
          <mxGeometry x="36" width="83" height="22" as="geometry">
            <mxRectangle width="83" height="22" as="alternateBounds" />
          </mxGeometry>
        </mxCell>
        <mxCell id="7ncmW5lJr1daxvioZh1j-229" style="shape=tableRow;horizontal=0;startSize=0;swimlaneHead=0;swimlaneBody=0;fillColor=none;collapsible=0;dropTarget=0;points=[[0,0.5],[1,0.5]];portConstraint=eastwest;top=0;left=0;right=0;bottom=0;" vertex="1" parent="7ncmW5lJr1daxvioZh1j-225">
          <mxGeometry y="47" width="119" height="22" as="geometry" />
        </mxCell>
        <mxCell id="7ncmW5lJr1daxvioZh1j-230" value="string" style="shape=partialRectangle;connectable=0;fillColor=none;top=0;left=0;bottom=0;right=0;align=left;spacingLeft=2;overflow=hidden;fontSize=11;" vertex="1" parent="7ncmW5lJr1daxvioZh1j-229">
          <mxGeometry width="36" height="22" as="geometry">
            <mxRectangle width="36" height="22" as="alternateBounds" />
          </mxGeometry>
        </mxCell>
        <mxCell id="7ncmW5lJr1daxvioZh1j-231" value="name" style="shape=partialRectangle;connectable=0;fillColor=none;top=0;left=0;bottom=0;right=0;align=left;spacingLeft=2;overflow=hidden;fontSize=11;" vertex="1" parent="7ncmW5lJr1daxvioZh1j-229">
          <mxGeometry x="36" width="83" height="22" as="geometry">
            <mxRectangle width="83" height="22" as="alternateBounds" />
          </mxGeometry>
        </mxCell>
        <mxCell id="7ncmW5lJr1daxvioZh1j-232" style="shape=tableRow;horizontal=0;startSize=0;swimlaneHead=0;swimlaneBody=0;fillColor=none;collapsible=0;dropTarget=0;points=[[0,0.5],[1,0.5]];portConstraint=eastwest;top=0;left=0;right=0;bottom=0;" vertex="1" parent="7ncmW5lJr1daxvioZh1j-225">
          <mxGeometry y="69" width="119" height="22" as="geometry" />
        </mxCell>
        <mxCell id="7ncmW5lJr1daxvioZh1j-233" value="string" style="shape=partialRectangle;connectable=0;fillColor=none;top=0;left=0;bottom=0;right=0;align=left;spacingLeft=2;overflow=hidden;fontSize=11;" vertex="1" parent="7ncmW5lJr1daxvioZh1j-232">
          <mxGeometry width="36" height="22" as="geometry">
            <mxRectangle width="36" height="22" as="alternateBounds" />
          </mxGeometry>
        </mxCell>
        <mxCell id="7ncmW5lJr1daxvioZh1j-234" value="address" style="shape=partialRectangle;connectable=0;fillColor=none;top=0;left=0;bottom=0;right=0;align=left;spacingLeft=2;overflow=hidden;fontSize=11;" vertex="1" parent="7ncmW5lJr1daxvioZh1j-232">
          <mxGeometry x="36" width="83" height="22" as="geometry">
            <mxRectangle width="83" height="22" as="alternateBounds" />
          </mxGeometry>
        </mxCell>
        <mxCell id="7ncmW5lJr1daxvioZh1j-235" style="shape=tableRow;horizontal=0;startSize=0;swimlaneHead=0;swimlaneBody=0;fillColor=none;collapsible=0;dropTarget=0;points=[[0,0.5],[1,0.5]];portConstraint=eastwest;top=0;left=0;right=0;bottom=0;" vertex="1" parent="7ncmW5lJr1daxvioZh1j-225">
          <mxGeometry y="91" width="119" height="22" as="geometry" />
        </mxCell>
        <mxCell id="7ncmW5lJr1daxvioZh1j-236" value="string" style="shape=partialRectangle;connectable=0;fillColor=none;top=0;left=0;bottom=0;right=0;align=left;spacingLeft=2;overflow=hidden;fontSize=11;" vertex="1" parent="7ncmW5lJr1daxvioZh1j-235">
          <mxGeometry width="36" height="22" as="geometry">
            <mxRectangle width="36" height="22" as="alternateBounds" />
          </mxGeometry>
        </mxCell>
        <mxCell id="7ncmW5lJr1daxvioZh1j-237" value="email" style="shape=partialRectangle;connectable=0;fillColor=none;top=0;left=0;bottom=0;right=0;align=left;spacingLeft=2;overflow=hidden;fontSize=11;" vertex="1" parent="7ncmW5lJr1daxvioZh1j-235">
          <mxGeometry x="36" width="83" height="22" as="geometry">
            <mxRectangle width="83" height="22" as="alternateBounds" />
          </mxGeometry>
        </mxCell>
        <mxCell id="7ncmW5lJr1daxvioZh1j-238" style="shape=tableRow;horizontal=0;startSize=0;swimlaneHead=0;swimlaneBody=0;fillColor=none;collapsible=0;dropTarget=0;points=[[0,0.5],[1,0.5]];portConstraint=eastwest;top=0;left=0;right=0;bottom=0;" vertex="1" parent="7ncmW5lJr1daxvioZh1j-225">
          <mxGeometry y="113" width="119" height="22" as="geometry" />
        </mxCell>
        <mxCell id="7ncmW5lJr1daxvioZh1j-239" value="string" style="shape=partialRectangle;connectable=0;fillColor=none;top=0;left=0;bottom=0;right=0;align=left;spacingLeft=2;overflow=hidden;fontSize=11;" vertex="1" parent="7ncmW5lJr1daxvioZh1j-238">
          <mxGeometry width="36" height="22" as="geometry">
            <mxRectangle width="36" height="22" as="alternateBounds" />
          </mxGeometry>
        </mxCell>
        <mxCell id="7ncmW5lJr1daxvioZh1j-240" value="phone" style="shape=partialRectangle;connectable=0;fillColor=none;top=0;left=0;bottom=0;right=0;align=left;spacingLeft=2;overflow=hidden;fontSize=11;" vertex="1" parent="7ncmW5lJr1daxvioZh1j-238">
          <mxGeometry x="36" width="83" height="22" as="geometry">
            <mxRectangle width="83" height="22" as="alternateBounds" />
          </mxGeometry>
        </mxCell>
        <mxCell id="7ncmW5lJr1daxvioZh1j-241" value="Payment" style="shape=table;startSize=25;container=1;collapsible=0;childLayout=tableLayout;fixedRows=1;rowLines=1;fontStyle=1;align=center;resizeLast=1;" vertex="1" parent="1">
          <mxGeometry x="445" y="1644" width="148" height="157" as="geometry" />
        </mxCell>
        <mxCell id="7ncmW5lJr1daxvioZh1j-242" style="shape=tableRow;horizontal=0;startSize=0;swimlaneHead=0;swimlaneBody=0;fillColor=none;collapsible=0;dropTarget=0;points=[[0,0.5],[1,0.5]];portConstraint=eastwest;top=0;left=0;right=0;bottom=0;" vertex="1" parent="7ncmW5lJr1daxvioZh1j-241">
          <mxGeometry y="25" width="148" height="22" as="geometry" />
        </mxCell>
        <mxCell id="7ncmW5lJr1daxvioZh1j-243" value="int" style="shape=partialRectangle;connectable=0;fillColor=none;top=0;left=0;bottom=0;right=0;align=left;spacingLeft=2;overflow=hidden;fontSize=11;" vertex="1" parent="7ncmW5lJr1daxvioZh1j-242">
          <mxGeometry width="36" height="22" as="geometry">
            <mxRectangle width="36" height="22" as="alternateBounds" />
          </mxGeometry>
        </mxCell>
        <mxCell id="7ncmW5lJr1daxvioZh1j-244" value="payment_id" style="shape=partialRectangle;connectable=0;fillColor=none;top=0;left=0;bottom=0;right=0;align=left;spacingLeft=2;overflow=hidden;fontSize=11;" vertex="1" parent="7ncmW5lJr1daxvioZh1j-242">
          <mxGeometry x="36" width="112" height="22" as="geometry">
            <mxRectangle width="112" height="22" as="alternateBounds" />
          </mxGeometry>
        </mxCell>
        <mxCell id="7ncmW5lJr1daxvioZh1j-245" style="shape=tableRow;horizontal=0;startSize=0;swimlaneHead=0;swimlaneBody=0;fillColor=none;collapsible=0;dropTarget=0;points=[[0,0.5],[1,0.5]];portConstraint=eastwest;top=0;left=0;right=0;bottom=0;" vertex="1" parent="7ncmW5lJr1daxvioZh1j-241">
          <mxGeometry y="47" width="148" height="22" as="geometry" />
        </mxCell>
        <mxCell id="7ncmW5lJr1daxvioZh1j-246" value="int" style="shape=partialRectangle;connectable=0;fillColor=none;top=0;left=0;bottom=0;right=0;align=left;spacingLeft=2;overflow=hidden;fontSize=11;" vertex="1" parent="7ncmW5lJr1daxvioZh1j-245">
          <mxGeometry width="36" height="22" as="geometry">
            <mxRectangle width="36" height="22" as="alternateBounds" />
          </mxGeometry>
        </mxCell>
        <mxCell id="7ncmW5lJr1daxvioZh1j-247" value="order_id" style="shape=partialRectangle;connectable=0;fillColor=none;top=0;left=0;bottom=0;right=0;align=left;spacingLeft=2;overflow=hidden;fontSize=11;" vertex="1" parent="7ncmW5lJr1daxvioZh1j-245">
          <mxGeometry x="36" width="112" height="22" as="geometry">
            <mxRectangle width="112" height="22" as="alternateBounds" />
          </mxGeometry>
        </mxCell>
        <mxCell id="7ncmW5lJr1daxvioZh1j-248" style="shape=tableRow;horizontal=0;startSize=0;swimlaneHead=0;swimlaneBody=0;fillColor=none;collapsible=0;dropTarget=0;points=[[0,0.5],[1,0.5]];portConstraint=eastwest;top=0;left=0;right=0;bottom=0;" vertex="1" parent="7ncmW5lJr1daxvioZh1j-241">
          <mxGeometry y="69" width="148" height="22" as="geometry" />
        </mxCell>
        <mxCell id="7ncmW5lJr1daxvioZh1j-249" value="float" style="shape=partialRectangle;connectable=0;fillColor=none;top=0;left=0;bottom=0;right=0;align=left;spacingLeft=2;overflow=hidden;fontSize=11;" vertex="1" parent="7ncmW5lJr1daxvioZh1j-248">
          <mxGeometry width="36" height="22" as="geometry">
            <mxRectangle width="36" height="22" as="alternateBounds" />
          </mxGeometry>
        </mxCell>
        <mxCell id="7ncmW5lJr1daxvioZh1j-250" value="amount" style="shape=partialRectangle;connectable=0;fillColor=none;top=0;left=0;bottom=0;right=0;align=left;spacingLeft=2;overflow=hidden;fontSize=11;" vertex="1" parent="7ncmW5lJr1daxvioZh1j-248">
          <mxGeometry x="36" width="112" height="22" as="geometry">
            <mxRectangle width="112" height="22" as="alternateBounds" />
          </mxGeometry>
        </mxCell>
        <mxCell id="7ncmW5lJr1daxvioZh1j-251" style="shape=tableRow;horizontal=0;startSize=0;swimlaneHead=0;swimlaneBody=0;fillColor=none;collapsible=0;dropTarget=0;points=[[0,0.5],[1,0.5]];portConstraint=eastwest;top=0;left=0;right=0;bottom=0;" vertex="1" parent="7ncmW5lJr1daxvioZh1j-241">
          <mxGeometry y="91" width="148" height="22" as="geometry" />
        </mxCell>
        <mxCell id="7ncmW5lJr1daxvioZh1j-252" value="date" style="shape=partialRectangle;connectable=0;fillColor=none;top=0;left=0;bottom=0;right=0;align=left;spacingLeft=2;overflow=hidden;fontSize=11;" vertex="1" parent="7ncmW5lJr1daxvioZh1j-251">
          <mxGeometry width="36" height="22" as="geometry">
            <mxRectangle width="36" height="22" as="alternateBounds" />
          </mxGeometry>
        </mxCell>
        <mxCell id="7ncmW5lJr1daxvioZh1j-253" value="payment_date" style="shape=partialRectangle;connectable=0;fillColor=none;top=0;left=0;bottom=0;right=0;align=left;spacingLeft=2;overflow=hidden;fontSize=11;" vertex="1" parent="7ncmW5lJr1daxvioZh1j-251">
          <mxGeometry x="36" width="112" height="22" as="geometry">
            <mxRectangle width="112" height="22" as="alternateBounds" />
          </mxGeometry>
        </mxCell>
        <mxCell id="7ncmW5lJr1daxvioZh1j-254" style="shape=tableRow;horizontal=0;startSize=0;swimlaneHead=0;swimlaneBody=0;fillColor=none;collapsible=0;dropTarget=0;points=[[0,0.5],[1,0.5]];portConstraint=eastwest;top=0;left=0;right=0;bottom=0;" vertex="1" parent="7ncmW5lJr1daxvioZh1j-241">
          <mxGeometry y="113" width="148" height="22" as="geometry" />
        </mxCell>
        <mxCell id="7ncmW5lJr1daxvioZh1j-255" value="string" style="shape=partialRectangle;connectable=0;fillColor=none;top=0;left=0;bottom=0;right=0;align=left;spacingLeft=2;overflow=hidden;fontSize=11;" vertex="1" parent="7ncmW5lJr1daxvioZh1j-254">
          <mxGeometry width="36" height="22" as="geometry">
            <mxRectangle width="36" height="22" as="alternateBounds" />
          </mxGeometry>
        </mxCell>
        <mxCell id="7ncmW5lJr1daxvioZh1j-256" value="payment_status" style="shape=partialRectangle;connectable=0;fillColor=none;top=0;left=0;bottom=0;right=0;align=left;spacingLeft=2;overflow=hidden;fontSize=11;" vertex="1" parent="7ncmW5lJr1daxvioZh1j-254">
          <mxGeometry x="36" width="112" height="22" as="geometry">
            <mxRectangle width="112" height="22" as="alternateBounds" />
          </mxGeometry>
        </mxCell>
        <mxCell id="7ncmW5lJr1daxvioZh1j-257" style="shape=tableRow;horizontal=0;startSize=0;swimlaneHead=0;swimlaneBody=0;fillColor=none;collapsible=0;dropTarget=0;points=[[0,0.5],[1,0.5]];portConstraint=eastwest;top=0;left=0;right=0;bottom=0;" vertex="1" parent="7ncmW5lJr1daxvioZh1j-241">
          <mxGeometry y="135" width="148" height="22" as="geometry" />
        </mxCell>
        <mxCell id="7ncmW5lJr1daxvioZh1j-258" value="string" style="shape=partialRectangle;connectable=0;fillColor=none;top=0;left=0;bottom=0;right=0;align=left;spacingLeft=2;overflow=hidden;fontSize=11;" vertex="1" parent="7ncmW5lJr1daxvioZh1j-257">
          <mxGeometry width="36" height="22" as="geometry">
            <mxRectangle width="36" height="22" as="alternateBounds" />
          </mxGeometry>
        </mxCell>
        <mxCell id="7ncmW5lJr1daxvioZh1j-259" value="payment_method" style="shape=partialRectangle;connectable=0;fillColor=none;top=0;left=0;bottom=0;right=0;align=left;spacingLeft=2;overflow=hidden;fontSize=11;" vertex="1" parent="7ncmW5lJr1daxvioZh1j-257">
          <mxGeometry x="36" width="112" height="22" as="geometry">
            <mxRectangle width="112" height="22" as="alternateBounds" />
          </mxGeometry>
        </mxCell>
        <mxCell id="7ncmW5lJr1daxvioZh1j-260" value="Admin" style="shape=table;startSize=25;container=1;collapsible=0;childLayout=tableLayout;fixedRows=1;rowLines=1;fontStyle=1;align=center;resizeLast=1;" vertex="1" parent="1">
          <mxGeometry x="851" y="1410" width="113" height="135" as="geometry" />
        </mxCell>
        <mxCell id="7ncmW5lJr1daxvioZh1j-261" style="shape=tableRow;horizontal=0;startSize=0;swimlaneHead=0;swimlaneBody=0;fillColor=none;collapsible=0;dropTarget=0;points=[[0,0.5],[1,0.5]];portConstraint=eastwest;top=0;left=0;right=0;bottom=0;" vertex="1" parent="7ncmW5lJr1daxvioZh1j-260">
          <mxGeometry y="25" width="113" height="22" as="geometry" />
        </mxCell>
        <mxCell id="7ncmW5lJr1daxvioZh1j-262" value="int" style="shape=partialRectangle;connectable=0;fillColor=none;top=0;left=0;bottom=0;right=0;align=left;spacingLeft=2;overflow=hidden;fontSize=11;" vertex="1" parent="7ncmW5lJr1daxvioZh1j-261">
          <mxGeometry width="39" height="22" as="geometry">
            <mxRectangle width="39" height="22" as="alternateBounds" />
          </mxGeometry>
        </mxCell>
        <mxCell id="7ncmW5lJr1daxvioZh1j-263" value="user_id" style="shape=partialRectangle;connectable=0;fillColor=none;top=0;left=0;bottom=0;right=0;align=left;spacingLeft=2;overflow=hidden;fontSize=11;" vertex="1" parent="7ncmW5lJr1daxvioZh1j-261">
          <mxGeometry x="39" width="74" height="22" as="geometry">
            <mxRectangle width="74" height="22" as="alternateBounds" />
          </mxGeometry>
        </mxCell>
        <mxCell id="7ncmW5lJr1daxvioZh1j-264" style="shape=tableRow;horizontal=0;startSize=0;swimlaneHead=0;swimlaneBody=0;fillColor=none;collapsible=0;dropTarget=0;points=[[0,0.5],[1,0.5]];portConstraint=eastwest;top=0;left=0;right=0;bottom=0;" vertex="1" parent="7ncmW5lJr1daxvioZh1j-260">
          <mxGeometry y="47" width="113" height="22" as="geometry" />
        </mxCell>
        <mxCell id="7ncmW5lJr1daxvioZh1j-265" value="string" style="shape=partialRectangle;connectable=0;fillColor=none;top=0;left=0;bottom=0;right=0;align=left;spacingLeft=2;overflow=hidden;fontSize=11;" vertex="1" parent="7ncmW5lJr1daxvioZh1j-264">
          <mxGeometry width="39" height="22" as="geometry">
            <mxRectangle width="39" height="22" as="alternateBounds" />
          </mxGeometry>
        </mxCell>
        <mxCell id="7ncmW5lJr1daxvioZh1j-266" value="username" style="shape=partialRectangle;connectable=0;fillColor=none;top=0;left=0;bottom=0;right=0;align=left;spacingLeft=2;overflow=hidden;fontSize=11;" vertex="1" parent="7ncmW5lJr1daxvioZh1j-264">
          <mxGeometry x="39" width="74" height="22" as="geometry">
            <mxRectangle width="74" height="22" as="alternateBounds" />
          </mxGeometry>
        </mxCell>
        <mxCell id="7ncmW5lJr1daxvioZh1j-267" style="shape=tableRow;horizontal=0;startSize=0;swimlaneHead=0;swimlaneBody=0;fillColor=none;collapsible=0;dropTarget=0;points=[[0,0.5],[1,0.5]];portConstraint=eastwest;top=0;left=0;right=0;bottom=0;" vertex="1" parent="7ncmW5lJr1daxvioZh1j-260">
          <mxGeometry y="69" width="113" height="22" as="geometry" />
        </mxCell>
        <mxCell id="7ncmW5lJr1daxvioZh1j-268" value="string" style="shape=partialRectangle;connectable=0;fillColor=none;top=0;left=0;bottom=0;right=0;align=left;spacingLeft=2;overflow=hidden;fontSize=11;" vertex="1" parent="7ncmW5lJr1daxvioZh1j-267">
          <mxGeometry width="39" height="22" as="geometry">
            <mxRectangle width="39" height="22" as="alternateBounds" />
          </mxGeometry>
        </mxCell>
        <mxCell id="7ncmW5lJr1daxvioZh1j-269" value="password" style="shape=partialRectangle;connectable=0;fillColor=none;top=0;left=0;bottom=0;right=0;align=left;spacingLeft=2;overflow=hidden;fontSize=11;" vertex="1" parent="7ncmW5lJr1daxvioZh1j-267">
          <mxGeometry x="39" width="74" height="22" as="geometry">
            <mxRectangle width="74" height="22" as="alternateBounds" />
          </mxGeometry>
        </mxCell>
        <mxCell id="7ncmW5lJr1daxvioZh1j-270" style="shape=tableRow;horizontal=0;startSize=0;swimlaneHead=0;swimlaneBody=0;fillColor=none;collapsible=0;dropTarget=0;points=[[0,0.5],[1,0.5]];portConstraint=eastwest;top=0;left=0;right=0;bottom=0;" vertex="1" parent="7ncmW5lJr1daxvioZh1j-260">
          <mxGeometry y="91" width="113" height="22" as="geometry" />
        </mxCell>
        <mxCell id="7ncmW5lJr1daxvioZh1j-271" value="string" style="shape=partialRectangle;connectable=0;fillColor=none;top=0;left=0;bottom=0;right=0;align=left;spacingLeft=2;overflow=hidden;fontSize=11;" vertex="1" parent="7ncmW5lJr1daxvioZh1j-270">
          <mxGeometry width="39" height="22" as="geometry">
            <mxRectangle width="39" height="22" as="alternateBounds" />
          </mxGeometry>
        </mxCell>
        <mxCell id="7ncmW5lJr1daxvioZh1j-272" value="role" style="shape=partialRectangle;connectable=0;fillColor=none;top=0;left=0;bottom=0;right=0;align=left;spacingLeft=2;overflow=hidden;fontSize=11;" vertex="1" parent="7ncmW5lJr1daxvioZh1j-270">
          <mxGeometry x="39" width="74" height="22" as="geometry">
            <mxRectangle width="74" height="22" as="alternateBounds" />
          </mxGeometry>
        </mxCell>
        <mxCell id="7ncmW5lJr1daxvioZh1j-273" style="shape=tableRow;horizontal=0;startSize=0;swimlaneHead=0;swimlaneBody=0;fillColor=none;collapsible=0;dropTarget=0;points=[[0,0.5],[1,0.5]];portConstraint=eastwest;top=0;left=0;right=0;bottom=0;" vertex="1" parent="7ncmW5lJr1daxvioZh1j-260">
          <mxGeometry y="113" width="113" height="22" as="geometry" />
        </mxCell>
        <mxCell id="7ncmW5lJr1daxvioZh1j-274" value="string" style="shape=partialRectangle;connectable=0;fillColor=none;top=0;left=0;bottom=0;right=0;align=left;spacingLeft=2;overflow=hidden;fontSize=11;" vertex="1" parent="7ncmW5lJr1daxvioZh1j-273">
          <mxGeometry width="39" height="22" as="geometry">
            <mxRectangle width="39" height="22" as="alternateBounds" />
          </mxGeometry>
        </mxCell>
        <mxCell id="7ncmW5lJr1daxvioZh1j-275" value="email" style="shape=partialRectangle;connectable=0;fillColor=none;top=0;left=0;bottom=0;right=0;align=left;spacingLeft=2;overflow=hidden;fontSize=11;" vertex="1" parent="7ncmW5lJr1daxvioZh1j-273">
          <mxGeometry x="39" width="74" height="22" as="geometry">
            <mxRectangle width="74" height="22" as="alternateBounds" />
          </mxGeometry>
        </mxCell>
        <mxCell id="7ncmW5lJr1daxvioZh1j-276" value="Report" style="shape=table;startSize=25;container=1;collapsible=0;childLayout=tableLayout;fixedRows=1;rowLines=1;fontStyle=1;align=center;resizeLast=1;" vertex="1" parent="1">
          <mxGeometry x="1052" y="1655" width="141" height="135" as="geometry" />
        </mxCell>
        <mxCell id="7ncmW5lJr1daxvioZh1j-277" style="shape=tableRow;horizontal=0;startSize=0;swimlaneHead=0;swimlaneBody=0;fillColor=none;collapsible=0;dropTarget=0;points=[[0,0.5],[1,0.5]];portConstraint=eastwest;top=0;left=0;right=0;bottom=0;" vertex="1" parent="7ncmW5lJr1daxvioZh1j-276">
          <mxGeometry y="25" width="141" height="22" as="geometry" />
        </mxCell>
        <mxCell id="7ncmW5lJr1daxvioZh1j-278" value="int" style="shape=partialRectangle;connectable=0;fillColor=none;top=0;left=0;bottom=0;right=0;align=left;spacingLeft=2;overflow=hidden;fontSize=11;" vertex="1" parent="7ncmW5lJr1daxvioZh1j-277">
          <mxGeometry width="36" height="22" as="geometry">
            <mxRectangle width="36" height="22" as="alternateBounds" />
          </mxGeometry>
        </mxCell>
        <mxCell id="7ncmW5lJr1daxvioZh1j-279" value="report_id" style="shape=partialRectangle;connectable=0;fillColor=none;top=0;left=0;bottom=0;right=0;align=left;spacingLeft=2;overflow=hidden;fontSize=11;" vertex="1" parent="7ncmW5lJr1daxvioZh1j-277">
          <mxGeometry x="36" width="105" height="22" as="geometry">
            <mxRectangle width="105" height="22" as="alternateBounds" />
          </mxGeometry>
        </mxCell>
        <mxCell id="7ncmW5lJr1daxvioZh1j-280" style="shape=tableRow;horizontal=0;startSize=0;swimlaneHead=0;swimlaneBody=0;fillColor=none;collapsible=0;dropTarget=0;points=[[0,0.5],[1,0.5]];portConstraint=eastwest;top=0;left=0;right=0;bottom=0;" vertex="1" parent="7ncmW5lJr1daxvioZh1j-276">
          <mxGeometry y="47" width="141" height="22" as="geometry" />
        </mxCell>
        <mxCell id="7ncmW5lJr1daxvioZh1j-281" value="int" style="shape=partialRectangle;connectable=0;fillColor=none;top=0;left=0;bottom=0;right=0;align=left;spacingLeft=2;overflow=hidden;fontSize=11;" vertex="1" parent="7ncmW5lJr1daxvioZh1j-280">
          <mxGeometry width="36" height="22" as="geometry">
            <mxRectangle width="36" height="22" as="alternateBounds" />
          </mxGeometry>
        </mxCell>
        <mxCell id="7ncmW5lJr1daxvioZh1j-282" value="user_id" style="shape=partialRectangle;connectable=0;fillColor=none;top=0;left=0;bottom=0;right=0;align=left;spacingLeft=2;overflow=hidden;fontSize=11;" vertex="1" parent="7ncmW5lJr1daxvioZh1j-280">
          <mxGeometry x="36" width="105" height="22" as="geometry">
            <mxRectangle width="105" height="22" as="alternateBounds" />
          </mxGeometry>
        </mxCell>
        <mxCell id="7ncmW5lJr1daxvioZh1j-283" style="shape=tableRow;horizontal=0;startSize=0;swimlaneHead=0;swimlaneBody=0;fillColor=none;collapsible=0;dropTarget=0;points=[[0,0.5],[1,0.5]];portConstraint=eastwest;top=0;left=0;right=0;bottom=0;" vertex="1" parent="7ncmW5lJr1daxvioZh1j-276">
          <mxGeometry y="69" width="141" height="22" as="geometry" />
        </mxCell>
        <mxCell id="7ncmW5lJr1daxvioZh1j-284" value="string" style="shape=partialRectangle;connectable=0;fillColor=none;top=0;left=0;bottom=0;right=0;align=left;spacingLeft=2;overflow=hidden;fontSize=11;" vertex="1" parent="7ncmW5lJr1daxvioZh1j-283">
          <mxGeometry width="36" height="22" as="geometry">
            <mxRectangle width="36" height="22" as="alternateBounds" />
          </mxGeometry>
        </mxCell>
        <mxCell id="7ncmW5lJr1daxvioZh1j-285" value="report_type" style="shape=partialRectangle;connectable=0;fillColor=none;top=0;left=0;bottom=0;right=0;align=left;spacingLeft=2;overflow=hidden;fontSize=11;" vertex="1" parent="7ncmW5lJr1daxvioZh1j-283">
          <mxGeometry x="36" width="105" height="22" as="geometry">
            <mxRectangle width="105" height="22" as="alternateBounds" />
          </mxGeometry>
        </mxCell>
        <mxCell id="7ncmW5lJr1daxvioZh1j-286" style="shape=tableRow;horizontal=0;startSize=0;swimlaneHead=0;swimlaneBody=0;fillColor=none;collapsible=0;dropTarget=0;points=[[0,0.5],[1,0.5]];portConstraint=eastwest;top=0;left=0;right=0;bottom=0;" vertex="1" parent="7ncmW5lJr1daxvioZh1j-276">
          <mxGeometry y="91" width="141" height="22" as="geometry" />
        </mxCell>
        <mxCell id="7ncmW5lJr1daxvioZh1j-287" value="date" style="shape=partialRectangle;connectable=0;fillColor=none;top=0;left=0;bottom=0;right=0;align=left;spacingLeft=2;overflow=hidden;fontSize=11;" vertex="1" parent="7ncmW5lJr1daxvioZh1j-286">
          <mxGeometry width="36" height="22" as="geometry">
            <mxRectangle width="36" height="22" as="alternateBounds" />
          </mxGeometry>
        </mxCell>
        <mxCell id="7ncmW5lJr1daxvioZh1j-288" value="generated_date" style="shape=partialRectangle;connectable=0;fillColor=none;top=0;left=0;bottom=0;right=0;align=left;spacingLeft=2;overflow=hidden;fontSize=11;" vertex="1" parent="7ncmW5lJr1daxvioZh1j-286">
          <mxGeometry x="36" width="105" height="22" as="geometry">
            <mxRectangle width="105" height="22" as="alternateBounds" />
          </mxGeometry>
        </mxCell>
        <mxCell id="7ncmW5lJr1daxvioZh1j-289" style="shape=tableRow;horizontal=0;startSize=0;swimlaneHead=0;swimlaneBody=0;fillColor=none;collapsible=0;dropTarget=0;points=[[0,0.5],[1,0.5]];portConstraint=eastwest;top=0;left=0;right=0;bottom=0;" vertex="1" parent="7ncmW5lJr1daxvioZh1j-276">
          <mxGeometry y="113" width="141" height="22" as="geometry" />
        </mxCell>
        <mxCell id="7ncmW5lJr1daxvioZh1j-290" value="string" style="shape=partialRectangle;connectable=0;fillColor=none;top=0;left=0;bottom=0;right=0;align=left;spacingLeft=2;overflow=hidden;fontSize=11;" vertex="1" parent="7ncmW5lJr1daxvioZh1j-289">
          <mxGeometry width="36" height="22" as="geometry">
            <mxRectangle width="36" height="22" as="alternateBounds" />
          </mxGeometry>
        </mxCell>
        <mxCell id="7ncmW5lJr1daxvioZh1j-291" value="content" style="shape=partialRectangle;connectable=0;fillColor=none;top=0;left=0;bottom=0;right=0;align=left;spacingLeft=2;overflow=hidden;fontSize=11;" vertex="1" parent="7ncmW5lJr1daxvioZh1j-289">
          <mxGeometry x="36" width="105" height="22" as="geometry">
            <mxRectangle width="105" height="22" as="alternateBounds" />
          </mxGeometry>
        </mxCell>
        <mxCell id="7ncmW5lJr1daxvioZh1j-292" value="places" style="curved=1;startArrow=ERmandOne;startSize=10;;endArrow=ERmany;endSize=10;;exitX=0.5;exitY=0.99;entryX=0;entryY=0.31;rounded=0;" edge="1" parent="1" source="7ncmW5lJr1daxvioZh1j-158" target="7ncmW5lJr1daxvioZh1j-177">
          <mxGeometry relative="1" as="geometry">
            <Array as="points">
              <mxPoint x="282" y="1849" />
            </Array>
          </mxGeometry>
        </mxCell>
        <mxCell id="7ncmW5lJr1daxvioZh1j-293" value="contains" style="curved=1;startArrow=ERmandOne;startSize=10;;endArrow=ERoneToMany;endSize=10;;exitX=0.5;exitY=1;entryX=0;entryY=0.21;rounded=0;" edge="1" parent="1" source="7ncmW5lJr1daxvioZh1j-177" target="7ncmW5lJr1daxvioZh1j-193">
          <mxGeometry relative="1" as="geometry">
            <Array as="points">
              <mxPoint x="606" y="2105" />
            </Array>
          </mxGeometry>
        </mxCell>
        <mxCell id="7ncmW5lJr1daxvioZh1j-294" value="included_in" style="curved=1;startArrow=ERmandOne;startSize=10;;endArrow=ERmany;endSize=10;;exitX=0.5;exitY=1;entryX=1;entryY=0.29;rounded=0;" edge="1" parent="1" source="7ncmW5lJr1daxvioZh1j-206" target="7ncmW5lJr1daxvioZh1j-193">
          <mxGeometry relative="1" as="geometry">
            <Array as="points">
              <mxPoint x="1122" y="2105" />
            </Array>
          </mxGeometry>
        </mxCell>
        <mxCell id="7ncmW5lJr1daxvioZh1j-295" value="supplies" style="curved=0;startArrow=ERmandOne;startSize=10;;endArrow=ERmany;endSize=10;;exitX=0.5;exitY=0.99;entryX=0;entryY=0.26;rounded=0;" edge="1" parent="1" source="7ncmW5lJr1daxvioZh1j-225" target="7ncmW5lJr1daxvioZh1j-206">
          <mxGeometry relative="1" as="geometry">
            <Array as="points">
              <mxPoint x="920" y="1970" />
            </Array>
          </mxGeometry>
        </mxCell>
        <mxCell id="7ncmW5lJr1daxvioZh1j-296" value="belongs_to" style="curved=1;startArrow=ERmandOne;startSize=10;;endArrow=ERmandOne;endSize=10;;exitX=0.5;exitY=0.99;entryX=0.15;entryY=0;rounded=0;" edge="1" parent="1" source="7ncmW5lJr1daxvioZh1j-241" target="7ncmW5lJr1daxvioZh1j-177">
          <mxGeometry relative="1" as="geometry">
            <Array as="points">
              <mxPoint x="519" y="1849" />
            </Array>
          </mxGeometry>
        </mxCell>
        <mxCell id="7ncmW5lJr1daxvioZh1j-297" value="generates" style="curved=1;startArrow=ERmandOne;startSize=10;;endArrow=ERmany;endSize=10;;exitX=1;exitY=0.73;entryX=0.5;entryY=0;rounded=0;" edge="1" parent="1" source="7ncmW5lJr1daxvioZh1j-260" target="7ncmW5lJr1daxvioZh1j-276">
          <mxGeometry relative="1" as="geometry">
            <Array as="points">
              <mxPoint x="1122" y="1594" />
            </Array>
          </mxGeometry>
        </mxCell>
        <mxCell id="7ncmW5lJr1daxvioZh1j-298" value="manages" style="curved=1;startArrow=ERmandOne;startSize=10;;endArrow=ERmany;endSize=10;;exitX=0;exitY=0.73;entryX=0.85;entryY=0;rounded=0;" edge="1" parent="1" source="7ncmW5lJr1daxvioZh1j-260" target="7ncmW5lJr1daxvioZh1j-177">
          <mxGeometry relative="1" as="geometry">
            <Array as="points">
              <mxPoint x="693" y="1594" />
              <mxPoint x="693" y="1849" />
            </Array>
          </mxGeometry>
        </mxCell>
        <mxCell id="7ncmW5lJr1daxvioZh1j-299" value="relates_to" style="curved=1;startArrow=ERmany;startSize=10;;endArrow=ERmandOne;endSize=10;;exitX=0;exitY=0.7;entryX=1;entryY=0.17;rounded=0;" edge="1" parent="1" source="7ncmW5lJr1daxvioZh1j-276" target="7ncmW5lJr1daxvioZh1j-177">
          <mxGeometry relative="1" as="geometry">
            <Array as="points">
              <mxPoint x="793" y="1849" />
            </Array>
          </mxGeometry>
        </mxCell>
        <mxCell id="7ncmW5lJr1daxvioZh1j-300" value="relates_to" style="curved=1;startArrow=ERmany;startSize=10;;endArrow=ERmandOne;endSize=10;;exitX=0.5;exitY=0.99;entryX=0.5;entryY=0;rounded=0;" edge="1" parent="1" source="7ncmW5lJr1daxvioZh1j-276" target="7ncmW5lJr1daxvioZh1j-206">
          <mxGeometry relative="1" as="geometry">
            <Array as="points" />
          </mxGeometry>
        </mxCell>
        <mxCell id="7ncmW5lJr1daxvioZh1j-302" value="Customers" style="shape=table;startSize=30;container=1;collapsible=1;childLayout=tableLayout;fixedRows=1;rowLines=0;fontStyle=1;align=center;resizeLast=1;fillColor=#eeeeee;strokeColor=#36393d;fontSize=14;" vertex="1" parent="1">
          <mxGeometry x="1360" y="1570" width="250" height="240" as="geometry" />
        </mxCell>
        <mxCell id="7ncmW5lJr1daxvioZh1j-303" value="" style="shape=partialRectangle;collapsible=0;dropTarget=0;pointerEvents=0;fillColor=none;points=[[0,0.5],[1,0.5]];portConstraint=eastwest;top=0;left=0;right=0;bottom=1;fontSize=14;" vertex="1" parent="7ncmW5lJr1daxvioZh1j-302">
          <mxGeometry y="30" width="250" height="30" as="geometry" />
        </mxCell>
        <mxCell id="7ncmW5lJr1daxvioZh1j-304" value="PK" style="shape=partialRectangle;overflow=hidden;connectable=0;fillColor=none;top=0;left=0;bottom=0;right=0;fontStyle=1;fontSize=14;" vertex="1" parent="7ncmW5lJr1daxvioZh1j-303">
          <mxGeometry width="30" height="30" as="geometry">
            <mxRectangle width="30" height="30" as="alternateBounds" />
          </mxGeometry>
        </mxCell>
        <mxCell id="7ncmW5lJr1daxvioZh1j-305" value="customer_id" style="shape=partialRectangle;overflow=hidden;connectable=0;fillColor=none;top=0;left=0;bottom=0;right=0;align=left;spacingLeft=6;fontStyle=5;fontSize=14;" vertex="1" parent="7ncmW5lJr1daxvioZh1j-303">
          <mxGeometry x="30" width="220" height="30" as="geometry">
            <mxRectangle width="220" height="30" as="alternateBounds" />
          </mxGeometry>
        </mxCell>
        <mxCell id="7ncmW5lJr1daxvioZh1j-306" value="" style="shape=partialRectangle;collapsible=0;dropTarget=0;pointerEvents=0;fillColor=none;points=[[0,0.5],[1,0.5]];portConstraint=eastwest;top=0;left=0;right=0;bottom=0;fontSize=14;" vertex="1" parent="7ncmW5lJr1daxvioZh1j-302">
          <mxGeometry y="60" width="250" height="30" as="geometry" />
        </mxCell>
        <mxCell id="7ncmW5lJr1daxvioZh1j-307" value="" style="shape=partialRectangle;overflow=hidden;connectable=0;fillColor=none;top=0;left=0;bottom=0;right=0;fontSize=14;" vertex="1" parent="7ncmW5lJr1daxvioZh1j-306">
          <mxGeometry width="30" height="30" as="geometry">
            <mxRectangle width="30" height="30" as="alternateBounds" />
          </mxGeometry>
        </mxCell>
        <mxCell id="7ncmW5lJr1daxvioZh1j-308" value="first_name" style="shape=partialRectangle;overflow=hidden;connectable=0;fillColor=none;top=0;left=0;bottom=0;right=0;align=left;spacingLeft=6;fontSize=14;" vertex="1" parent="7ncmW5lJr1daxvioZh1j-306">
          <mxGeometry x="30" width="220" height="30" as="geometry">
            <mxRectangle width="220" height="30" as="alternateBounds" />
          </mxGeometry>
        </mxCell>
        <mxCell id="7ncmW5lJr1daxvioZh1j-309" value="" style="shape=partialRectangle;collapsible=0;dropTarget=0;pointerEvents=0;fillColor=none;points=[[0,0.5],[1,0.5]];portConstraint=eastwest;top=0;left=0;right=0;bottom=0;fontSize=14;" vertex="1" parent="7ncmW5lJr1daxvioZh1j-302">
          <mxGeometry y="90" width="250" height="30" as="geometry" />
        </mxCell>
        <mxCell id="7ncmW5lJr1daxvioZh1j-310" value="" style="shape=partialRectangle;overflow=hidden;connectable=0;fillColor=none;top=0;left=0;bottom=0;right=0;fontSize=14;" vertex="1" parent="7ncmW5lJr1daxvioZh1j-309">
          <mxGeometry width="30" height="30" as="geometry">
            <mxRectangle width="30" height="30" as="alternateBounds" />
          </mxGeometry>
        </mxCell>
        <mxCell id="7ncmW5lJr1daxvioZh1j-311" value="last_name" style="shape=partialRectangle;overflow=hidden;connectable=0;fillColor=none;top=0;left=0;bottom=0;right=0;align=left;spacingLeft=6;fontSize=14;" vertex="1" parent="7ncmW5lJr1daxvioZh1j-309">
          <mxGeometry x="30" width="220" height="30" as="geometry">
            <mxRectangle width="220" height="30" as="alternateBounds" />
          </mxGeometry>
        </mxCell>
        <mxCell id="7ncmW5lJr1daxvioZh1j-312" value="" style="shape=partialRectangle;collapsible=0;dropTarget=0;pointerEvents=0;fillColor=none;points=[[0,0.5],[1,0.5]];portConstraint=eastwest;top=0;left=0;right=0;bottom=0;fontSize=14;" vertex="1" parent="7ncmW5lJr1daxvioZh1j-302">
          <mxGeometry y="120" width="250" height="30" as="geometry" />
        </mxCell>
        <mxCell id="7ncmW5lJr1daxvioZh1j-313" value="" style="shape=partialRectangle;overflow=hidden;connectable=0;fillColor=none;top=0;left=0;bottom=0;right=0;fontSize=14;" vertex="1" parent="7ncmW5lJr1daxvioZh1j-312">
          <mxGeometry width="30" height="30" as="geometry">
            <mxRectangle width="30" height="30" as="alternateBounds" />
          </mxGeometry>
        </mxCell>
        <mxCell id="7ncmW5lJr1daxvioZh1j-314" value="password" style="shape=partialRectangle;overflow=hidden;connectable=0;fillColor=none;top=0;left=0;bottom=0;right=0;align=left;spacingLeft=6;fontSize=14;" vertex="1" parent="7ncmW5lJr1daxvioZh1j-312">
          <mxGeometry x="30" width="220" height="30" as="geometry">
            <mxRectangle width="220" height="30" as="alternateBounds" />
          </mxGeometry>
        </mxCell>
        <mxCell id="7ncmW5lJr1daxvioZh1j-315" value="" style="shape=partialRectangle;collapsible=0;dropTarget=0;pointerEvents=0;fillColor=none;points=[[0,0.5],[1,0.5]];portConstraint=eastwest;top=0;left=0;right=0;bottom=0;fontSize=14;" vertex="1" parent="7ncmW5lJr1daxvioZh1j-302">
          <mxGeometry y="150" width="250" height="30" as="geometry" />
        </mxCell>
        <mxCell id="7ncmW5lJr1daxvioZh1j-316" value="" style="shape=partialRectangle;overflow=hidden;connectable=0;fillColor=none;top=0;left=0;bottom=0;right=0;fontSize=14;" vertex="1" parent="7ncmW5lJr1daxvioZh1j-315">
          <mxGeometry width="30" height="30" as="geometry">
            <mxRectangle width="30" height="30" as="alternateBounds" />
          </mxGeometry>
        </mxCell>
        <mxCell id="7ncmW5lJr1daxvioZh1j-317" value="address" style="shape=partialRectangle;overflow=hidden;connectable=0;fillColor=none;top=0;left=0;bottom=0;right=0;align=left;spacingLeft=6;fontSize=14;" vertex="1" parent="7ncmW5lJr1daxvioZh1j-315">
          <mxGeometry x="30" width="220" height="30" as="geometry">
            <mxRectangle width="220" height="30" as="alternateBounds" />
          </mxGeometry>
        </mxCell>
        <mxCell id="7ncmW5lJr1daxvioZh1j-318" value="" style="shape=partialRectangle;collapsible=0;dropTarget=0;pointerEvents=0;fillColor=none;points=[[0,0.5],[1,0.5]];portConstraint=eastwest;top=0;left=0;right=0;bottom=0;fontSize=14;" vertex="1" parent="7ncmW5lJr1daxvioZh1j-302">
          <mxGeometry y="180" width="250" height="30" as="geometry" />
        </mxCell>
        <mxCell id="7ncmW5lJr1daxvioZh1j-319" value="" style="shape=partialRectangle;overflow=hidden;connectable=0;fillColor=none;top=0;left=0;bottom=0;right=0;fontSize=14;" vertex="1" parent="7ncmW5lJr1daxvioZh1j-318">
          <mxGeometry width="30" height="30" as="geometry">
            <mxRectangle width="30" height="30" as="alternateBounds" />
          </mxGeometry>
        </mxCell>
        <mxCell id="7ncmW5lJr1daxvioZh1j-320" value="phone" style="shape=partialRectangle;overflow=hidden;connectable=0;fillColor=none;top=0;left=0;bottom=0;right=0;align=left;spacingLeft=6;fontSize=14;" vertex="1" parent="7ncmW5lJr1daxvioZh1j-318">
          <mxGeometry x="30" width="220" height="30" as="geometry">
            <mxRectangle width="220" height="30" as="alternateBounds" />
          </mxGeometry>
        </mxCell>
        <mxCell id="7ncmW5lJr1daxvioZh1j-321" value="" style="shape=partialRectangle;collapsible=0;dropTarget=0;pointerEvents=0;fillColor=none;points=[[0,0.5],[1,0.5]];portConstraint=eastwest;top=0;left=0;right=0;bottom=0;fontSize=14;" vertex="1" parent="7ncmW5lJr1daxvioZh1j-302">
          <mxGeometry y="210" width="250" height="30" as="geometry" />
        </mxCell>
        <mxCell id="7ncmW5lJr1daxvioZh1j-322" value="" style="shape=partialRectangle;overflow=hidden;connectable=0;fillColor=none;top=0;left=0;bottom=0;right=0;fontSize=14;" vertex="1" parent="7ncmW5lJr1daxvioZh1j-321">
          <mxGeometry width="30" height="30" as="geometry">
            <mxRectangle width="30" height="30" as="alternateBounds" />
          </mxGeometry>
        </mxCell>
        <mxCell id="7ncmW5lJr1daxvioZh1j-323" value="email" style="shape=partialRectangle;overflow=hidden;connectable=0;fillColor=none;top=0;left=0;bottom=0;right=0;align=left;spacingLeft=6;fontSize=14;" vertex="1" parent="7ncmW5lJr1daxvioZh1j-321">
          <mxGeometry x="30" width="220" height="30" as="geometry">
            <mxRectangle width="220" height="30" as="alternateBounds" />
          </mxGeometry>
        </mxCell>
        <mxCell id="7ncmW5lJr1daxvioZh1j-324" value="Suppliers" style="shape=table;startSize=30;container=1;collapsible=1;childLayout=tableLayout;fixedRows=1;rowLines=0;fontStyle=1;align=center;resizeLast=1;fillColor=#eeeeee;strokeColor=#36393d;fontSize=14;" vertex="1" parent="1">
          <mxGeometry x="2050" y="1561" width="250" height="240" as="geometry" />
        </mxCell>
        <mxCell id="7ncmW5lJr1daxvioZh1j-325" value="" style="shape=partialRectangle;collapsible=0;dropTarget=0;pointerEvents=0;fillColor=none;points=[[0,0.5],[1,0.5]];portConstraint=eastwest;top=0;left=0;right=0;bottom=1;fontSize=14;" vertex="1" parent="7ncmW5lJr1daxvioZh1j-324">
          <mxGeometry y="30" width="250" height="30" as="geometry" />
        </mxCell>
        <mxCell id="7ncmW5lJr1daxvioZh1j-326" value="PK" style="shape=partialRectangle;overflow=hidden;connectable=0;fillColor=none;top=0;left=0;bottom=0;right=0;fontStyle=1;fontSize=14;" vertex="1" parent="7ncmW5lJr1daxvioZh1j-325">
          <mxGeometry width="30" height="30" as="geometry">
            <mxRectangle width="30" height="30" as="alternateBounds" />
          </mxGeometry>
        </mxCell>
        <mxCell id="7ncmW5lJr1daxvioZh1j-327" value="suppiler_id" style="shape=partialRectangle;overflow=hidden;connectable=0;fillColor=none;top=0;left=0;bottom=0;right=0;align=left;spacingLeft=6;fontStyle=5;fontSize=14;" vertex="1" parent="7ncmW5lJr1daxvioZh1j-325">
          <mxGeometry x="30" width="220" height="30" as="geometry">
            <mxRectangle width="220" height="30" as="alternateBounds" />
          </mxGeometry>
        </mxCell>
        <mxCell id="7ncmW5lJr1daxvioZh1j-328" value="" style="shape=partialRectangle;collapsible=0;dropTarget=0;pointerEvents=0;fillColor=none;points=[[0,0.5],[1,0.5]];portConstraint=eastwest;top=0;left=0;right=0;bottom=0;fontSize=14;" vertex="1" parent="7ncmW5lJr1daxvioZh1j-324">
          <mxGeometry y="60" width="250" height="30" as="geometry" />
        </mxCell>
        <mxCell id="7ncmW5lJr1daxvioZh1j-329" value="" style="shape=partialRectangle;overflow=hidden;connectable=0;fillColor=none;top=0;left=0;bottom=0;right=0;fontSize=14;" vertex="1" parent="7ncmW5lJr1daxvioZh1j-328">
          <mxGeometry width="30" height="30" as="geometry">
            <mxRectangle width="30" height="30" as="alternateBounds" />
          </mxGeometry>
        </mxCell>
        <mxCell id="7ncmW5lJr1daxvioZh1j-330" value="first_name" style="shape=partialRectangle;overflow=hidden;connectable=0;fillColor=none;top=0;left=0;bottom=0;right=0;align=left;spacingLeft=6;fontSize=14;" vertex="1" parent="7ncmW5lJr1daxvioZh1j-328">
          <mxGeometry x="30" width="220" height="30" as="geometry">
            <mxRectangle width="220" height="30" as="alternateBounds" />
          </mxGeometry>
        </mxCell>
        <mxCell id="7ncmW5lJr1daxvioZh1j-331" value="" style="shape=partialRectangle;collapsible=0;dropTarget=0;pointerEvents=0;fillColor=none;points=[[0,0.5],[1,0.5]];portConstraint=eastwest;top=0;left=0;right=0;bottom=0;fontSize=14;" vertex="1" parent="7ncmW5lJr1daxvioZh1j-324">
          <mxGeometry y="90" width="250" height="30" as="geometry" />
        </mxCell>
        <mxCell id="7ncmW5lJr1daxvioZh1j-332" value="" style="shape=partialRectangle;overflow=hidden;connectable=0;fillColor=none;top=0;left=0;bottom=0;right=0;fontSize=14;" vertex="1" parent="7ncmW5lJr1daxvioZh1j-331">
          <mxGeometry width="30" height="30" as="geometry">
            <mxRectangle width="30" height="30" as="alternateBounds" />
          </mxGeometry>
        </mxCell>
        <mxCell id="7ncmW5lJr1daxvioZh1j-333" value="last_name" style="shape=partialRectangle;overflow=hidden;connectable=0;fillColor=none;top=0;left=0;bottom=0;right=0;align=left;spacingLeft=6;fontSize=14;" vertex="1" parent="7ncmW5lJr1daxvioZh1j-331">
          <mxGeometry x="30" width="220" height="30" as="geometry">
            <mxRectangle width="220" height="30" as="alternateBounds" />
          </mxGeometry>
        </mxCell>
        <mxCell id="7ncmW5lJr1daxvioZh1j-334" value="" style="shape=partialRectangle;collapsible=0;dropTarget=0;pointerEvents=0;fillColor=none;points=[[0,0.5],[1,0.5]];portConstraint=eastwest;top=0;left=0;right=0;bottom=0;fontSize=14;" vertex="1" parent="7ncmW5lJr1daxvioZh1j-324">
          <mxGeometry y="120" width="250" height="30" as="geometry" />
        </mxCell>
        <mxCell id="7ncmW5lJr1daxvioZh1j-335" value="" style="shape=partialRectangle;overflow=hidden;connectable=0;fillColor=none;top=0;left=0;bottom=0;right=0;fontSize=14;" vertex="1" parent="7ncmW5lJr1daxvioZh1j-334">
          <mxGeometry width="30" height="30" as="geometry">
            <mxRectangle width="30" height="30" as="alternateBounds" />
          </mxGeometry>
        </mxCell>
        <mxCell id="7ncmW5lJr1daxvioZh1j-336" value="password" style="shape=partialRectangle;overflow=hidden;connectable=0;fillColor=none;top=0;left=0;bottom=0;right=0;align=left;spacingLeft=6;fontSize=14;" vertex="1" parent="7ncmW5lJr1daxvioZh1j-334">
          <mxGeometry x="30" width="220" height="30" as="geometry">
            <mxRectangle width="220" height="30" as="alternateBounds" />
          </mxGeometry>
        </mxCell>
        <mxCell id="7ncmW5lJr1daxvioZh1j-337" value="" style="shape=partialRectangle;collapsible=0;dropTarget=0;pointerEvents=0;fillColor=none;points=[[0,0.5],[1,0.5]];portConstraint=eastwest;top=0;left=0;right=0;bottom=0;fontSize=14;" vertex="1" parent="7ncmW5lJr1daxvioZh1j-324">
          <mxGeometry y="150" width="250" height="30" as="geometry" />
        </mxCell>
        <mxCell id="7ncmW5lJr1daxvioZh1j-338" value="" style="shape=partialRectangle;overflow=hidden;connectable=0;fillColor=none;top=0;left=0;bottom=0;right=0;fontSize=14;" vertex="1" parent="7ncmW5lJr1daxvioZh1j-337">
          <mxGeometry width="30" height="30" as="geometry">
            <mxRectangle width="30" height="30" as="alternateBounds" />
          </mxGeometry>
        </mxCell>
        <mxCell id="7ncmW5lJr1daxvioZh1j-339" value="address" style="shape=partialRectangle;overflow=hidden;connectable=0;fillColor=none;top=0;left=0;bottom=0;right=0;align=left;spacingLeft=6;fontSize=14;" vertex="1" parent="7ncmW5lJr1daxvioZh1j-337">
          <mxGeometry x="30" width="220" height="30" as="geometry">
            <mxRectangle width="220" height="30" as="alternateBounds" />
          </mxGeometry>
        </mxCell>
        <mxCell id="7ncmW5lJr1daxvioZh1j-340" value="" style="shape=partialRectangle;collapsible=0;dropTarget=0;pointerEvents=0;fillColor=none;points=[[0,0.5],[1,0.5]];portConstraint=eastwest;top=0;left=0;right=0;bottom=0;fontSize=14;" vertex="1" parent="7ncmW5lJr1daxvioZh1j-324">
          <mxGeometry y="180" width="250" height="30" as="geometry" />
        </mxCell>
        <mxCell id="7ncmW5lJr1daxvioZh1j-341" value="" style="shape=partialRectangle;overflow=hidden;connectable=0;fillColor=none;top=0;left=0;bottom=0;right=0;fontSize=14;" vertex="1" parent="7ncmW5lJr1daxvioZh1j-340">
          <mxGeometry width="30" height="30" as="geometry">
            <mxRectangle width="30" height="30" as="alternateBounds" />
          </mxGeometry>
        </mxCell>
        <mxCell id="7ncmW5lJr1daxvioZh1j-342" value="phone" style="shape=partialRectangle;overflow=hidden;connectable=0;fillColor=none;top=0;left=0;bottom=0;right=0;align=left;spacingLeft=6;fontSize=14;" vertex="1" parent="7ncmW5lJr1daxvioZh1j-340">
          <mxGeometry x="30" width="220" height="30" as="geometry">
            <mxRectangle width="220" height="30" as="alternateBounds" />
          </mxGeometry>
        </mxCell>
        <mxCell id="7ncmW5lJr1daxvioZh1j-343" value="" style="shape=partialRectangle;collapsible=0;dropTarget=0;pointerEvents=0;fillColor=none;points=[[0,0.5],[1,0.5]];portConstraint=eastwest;top=0;left=0;right=0;bottom=0;fontSize=14;" vertex="1" parent="7ncmW5lJr1daxvioZh1j-324">
          <mxGeometry y="210" width="250" height="30" as="geometry" />
        </mxCell>
        <mxCell id="7ncmW5lJr1daxvioZh1j-344" value="" style="shape=partialRectangle;overflow=hidden;connectable=0;fillColor=none;top=0;left=0;bottom=0;right=0;fontSize=14;" vertex="1" parent="7ncmW5lJr1daxvioZh1j-343">
          <mxGeometry width="30" height="30" as="geometry">
            <mxRectangle width="30" height="30" as="alternateBounds" />
          </mxGeometry>
        </mxCell>
        <mxCell id="7ncmW5lJr1daxvioZh1j-345" value="email" style="shape=partialRectangle;overflow=hidden;connectable=0;fillColor=none;top=0;left=0;bottom=0;right=0;align=left;spacingLeft=6;fontSize=14;" vertex="1" parent="7ncmW5lJr1daxvioZh1j-343">
          <mxGeometry x="30" width="220" height="30" as="geometry">
            <mxRectangle width="220" height="30" as="alternateBounds" />
          </mxGeometry>
        </mxCell>
        <mxCell id="7ncmW5lJr1daxvioZh1j-346" value="Payments" style="shape=table;startSize=30;container=1;collapsible=1;childLayout=tableLayout;fixedRows=1;rowLines=0;fontStyle=1;align=center;resizeLast=1;fillColor=#eeeeee;strokeColor=#36393d;fontSize=14;" vertex="1" parent="1">
          <mxGeometry x="1720" y="1556" width="250" height="250" as="geometry" />
        </mxCell>
        <mxCell id="7ncmW5lJr1daxvioZh1j-347" value="" style="shape=partialRectangle;collapsible=0;dropTarget=0;pointerEvents=0;fillColor=none;points=[[0,0.5],[1,0.5]];portConstraint=eastwest;top=0;left=0;right=0;bottom=1;fontSize=14;" vertex="1" parent="7ncmW5lJr1daxvioZh1j-346">
          <mxGeometry y="30" width="250" height="30" as="geometry" />
        </mxCell>
        <mxCell id="7ncmW5lJr1daxvioZh1j-348" value="PK" style="shape=partialRectangle;overflow=hidden;connectable=0;fillColor=none;top=0;left=0;bottom=0;right=0;fontStyle=1;fontSize=14;" vertex="1" parent="7ncmW5lJr1daxvioZh1j-347">
          <mxGeometry width="30" height="30" as="geometry">
            <mxRectangle width="30" height="30" as="alternateBounds" />
          </mxGeometry>
        </mxCell>
        <mxCell id="7ncmW5lJr1daxvioZh1j-349" value="payment_id" style="shape=partialRectangle;overflow=hidden;connectable=0;fillColor=none;top=0;left=0;bottom=0;right=0;align=left;spacingLeft=6;fontStyle=5;fontSize=14;" vertex="1" parent="7ncmW5lJr1daxvioZh1j-347">
          <mxGeometry x="30" width="220" height="30" as="geometry">
            <mxRectangle width="220" height="30" as="alternateBounds" />
          </mxGeometry>
        </mxCell>
        <mxCell id="7ncmW5lJr1daxvioZh1j-350" value="" style="shape=partialRectangle;collapsible=0;dropTarget=0;pointerEvents=0;fillColor=none;points=[[0,0.5],[1,0.5]];portConstraint=eastwest;top=0;left=0;right=0;bottom=0;fontSize=14;" vertex="1" parent="7ncmW5lJr1daxvioZh1j-346">
          <mxGeometry y="60" width="250" height="30" as="geometry" />
        </mxCell>
        <mxCell id="7ncmW5lJr1daxvioZh1j-351" value="" style="shape=partialRectangle;overflow=hidden;connectable=0;fillColor=none;top=0;left=0;bottom=0;right=0;fontSize=14;" vertex="1" parent="7ncmW5lJr1daxvioZh1j-350">
          <mxGeometry width="30" height="30" as="geometry">
            <mxRectangle width="30" height="30" as="alternateBounds" />
          </mxGeometry>
        </mxCell>
        <mxCell id="7ncmW5lJr1daxvioZh1j-352" value="ammount" style="shape=partialRectangle;overflow=hidden;connectable=0;fillColor=none;top=0;left=0;bottom=0;right=0;align=left;spacingLeft=6;fontSize=14;" vertex="1" parent="7ncmW5lJr1daxvioZh1j-350">
          <mxGeometry x="30" width="220" height="30" as="geometry">
            <mxRectangle width="220" height="30" as="alternateBounds" />
          </mxGeometry>
        </mxCell>
        <mxCell id="7ncmW5lJr1daxvioZh1j-353" value="" style="shape=partialRectangle;collapsible=0;dropTarget=0;pointerEvents=0;fillColor=none;points=[[0,0.5],[1,0.5]];portConstraint=eastwest;top=0;left=0;right=0;bottom=0;fontSize=14;" vertex="1" parent="7ncmW5lJr1daxvioZh1j-346">
          <mxGeometry y="90" width="250" height="30" as="geometry" />
        </mxCell>
        <mxCell id="7ncmW5lJr1daxvioZh1j-354" value="" style="shape=partialRectangle;overflow=hidden;connectable=0;fillColor=none;top=0;left=0;bottom=0;right=0;fontSize=14;" vertex="1" parent="7ncmW5lJr1daxvioZh1j-353">
          <mxGeometry width="30" height="30" as="geometry">
            <mxRectangle width="30" height="30" as="alternateBounds" />
          </mxGeometry>
        </mxCell>
        <mxCell id="7ncmW5lJr1daxvioZh1j-355" value="payment_date" style="shape=partialRectangle;overflow=hidden;connectable=0;fillColor=none;top=0;left=0;bottom=0;right=0;align=left;spacingLeft=6;fontSize=14;" vertex="1" parent="7ncmW5lJr1daxvioZh1j-353">
          <mxGeometry x="30" width="220" height="30" as="geometry">
            <mxRectangle width="220" height="30" as="alternateBounds" />
          </mxGeometry>
        </mxCell>
        <mxCell id="7ncmW5lJr1daxvioZh1j-356" value="" style="shape=partialRectangle;collapsible=0;dropTarget=0;pointerEvents=0;fillColor=none;points=[[0,0.5],[1,0.5]];portConstraint=eastwest;top=0;left=0;right=0;bottom=0;fontSize=14;" vertex="1" parent="7ncmW5lJr1daxvioZh1j-346">
          <mxGeometry y="120" width="250" height="30" as="geometry" />
        </mxCell>
        <mxCell id="7ncmW5lJr1daxvioZh1j-357" value="" style="shape=partialRectangle;overflow=hidden;connectable=0;fillColor=none;top=0;left=0;bottom=0;right=0;fontSize=14;" vertex="1" parent="7ncmW5lJr1daxvioZh1j-356">
          <mxGeometry width="30" height="30" as="geometry">
            <mxRectangle width="30" height="30" as="alternateBounds" />
          </mxGeometry>
        </mxCell>
        <mxCell id="7ncmW5lJr1daxvioZh1j-358" value="payment_status" style="shape=partialRectangle;overflow=hidden;connectable=0;fillColor=none;top=0;left=0;bottom=0;right=0;align=left;spacingLeft=6;fontSize=14;" vertex="1" parent="7ncmW5lJr1daxvioZh1j-356">
          <mxGeometry x="30" width="220" height="30" as="geometry">
            <mxRectangle width="220" height="30" as="alternateBounds" />
          </mxGeometry>
        </mxCell>
        <mxCell id="7ncmW5lJr1daxvioZh1j-359" value="" style="shape=partialRectangle;collapsible=0;dropTarget=0;pointerEvents=0;fillColor=none;points=[[0,0.5],[1,0.5]];portConstraint=eastwest;top=0;left=0;right=0;bottom=0;fontSize=14;" vertex="1" parent="7ncmW5lJr1daxvioZh1j-346">
          <mxGeometry y="150" width="250" height="30" as="geometry" />
        </mxCell>
        <mxCell id="7ncmW5lJr1daxvioZh1j-360" value="" style="shape=partialRectangle;overflow=hidden;connectable=0;fillColor=none;top=0;left=0;bottom=0;right=0;fontSize=14;" vertex="1" parent="7ncmW5lJr1daxvioZh1j-359">
          <mxGeometry width="30" height="30" as="geometry">
            <mxRectangle width="30" height="30" as="alternateBounds" />
          </mxGeometry>
        </mxCell>
        <mxCell id="7ncmW5lJr1daxvioZh1j-361" value="payment_method" style="shape=partialRectangle;overflow=hidden;connectable=0;fillColor=none;top=0;left=0;bottom=0;right=0;align=left;spacingLeft=6;fontSize=14;" vertex="1" parent="7ncmW5lJr1daxvioZh1j-359">
          <mxGeometry x="30" width="220" height="30" as="geometry">
            <mxRectangle width="220" height="30" as="alternateBounds" />
          </mxGeometry>
        </mxCell>
        <mxCell id="7ncmW5lJr1daxvioZh1j-362" value="" style="shape=partialRectangle;collapsible=0;dropTarget=0;pointerEvents=0;fillColor=none;points=[[0,0.5],[1,0.5]];portConstraint=eastwest;top=0;left=0;right=0;bottom=0;fontSize=14;" vertex="1" parent="7ncmW5lJr1daxvioZh1j-346">
          <mxGeometry y="180" width="250" height="30" as="geometry" />
        </mxCell>
        <mxCell id="7ncmW5lJr1daxvioZh1j-363" value="FK" style="shape=partialRectangle;overflow=hidden;connectable=0;fillColor=none;top=0;left=0;bottom=0;right=0;fontSize=14;" vertex="1" parent="7ncmW5lJr1daxvioZh1j-362">
          <mxGeometry width="30" height="30" as="geometry">
            <mxRectangle width="30" height="30" as="alternateBounds" />
          </mxGeometry>
        </mxCell>
        <mxCell id="7ncmW5lJr1daxvioZh1j-364" value="customer_id" style="shape=partialRectangle;overflow=hidden;connectable=0;fillColor=none;top=0;left=0;bottom=0;right=0;align=left;spacingLeft=6;fontSize=14;" vertex="1" parent="7ncmW5lJr1daxvioZh1j-362">
          <mxGeometry x="30" width="220" height="30" as="geometry">
            <mxRectangle width="220" height="30" as="alternateBounds" />
          </mxGeometry>
        </mxCell>
        <mxCell id="7ncmW5lJr1daxvioZh1j-365" value="" style="shape=partialRectangle;collapsible=0;dropTarget=0;pointerEvents=0;fillColor=none;points=[[0,0.5],[1,0.5]];portConstraint=eastwest;top=0;left=0;right=0;bottom=0;fontSize=14;" vertex="1" parent="7ncmW5lJr1daxvioZh1j-346">
          <mxGeometry y="210" width="250" height="40" as="geometry" />
        </mxCell>
        <mxCell id="7ncmW5lJr1daxvioZh1j-366" value="FK" style="shape=partialRectangle;overflow=hidden;connectable=0;fillColor=none;top=0;left=0;bottom=0;right=0;fontSize=14;" vertex="1" parent="7ncmW5lJr1daxvioZh1j-365">
          <mxGeometry width="30" height="40" as="geometry">
            <mxRectangle width="30" height="40" as="alternateBounds" />
          </mxGeometry>
        </mxCell>
        <mxCell id="7ncmW5lJr1daxvioZh1j-367" value="order_id" style="shape=partialRectangle;overflow=hidden;connectable=0;fillColor=none;top=0;left=0;bottom=0;right=0;align=left;spacingLeft=6;fontSize=14;" vertex="1" parent="7ncmW5lJr1daxvioZh1j-365">
          <mxGeometry x="30" width="220" height="40" as="geometry">
            <mxRectangle width="220" height="40" as="alternateBounds" />
          </mxGeometry>
        </mxCell>
        <mxCell id="7ncmW5lJr1daxvioZh1j-370" value="Orders" style="shape=table;startSize=30;container=1;collapsible=1;childLayout=tableLayout;fixedRows=1;rowLines=0;fontStyle=1;align=center;resizeLast=1;fillColor=#eeeeee;strokeColor=#36393d;fontSize=14;" vertex="1" parent="1">
          <mxGeometry x="1654" y="1950" width="266" height="220" as="geometry" />
        </mxCell>
        <mxCell id="7ncmW5lJr1daxvioZh1j-371" value="" style="shape=partialRectangle;collapsible=0;dropTarget=0;pointerEvents=0;fillColor=none;points=[[0,0.5],[1,0.5]];portConstraint=eastwest;top=0;left=0;right=0;bottom=1;fontSize=14;" vertex="1" parent="7ncmW5lJr1daxvioZh1j-370">
          <mxGeometry y="30" width="266" height="30" as="geometry" />
        </mxCell>
        <mxCell id="7ncmW5lJr1daxvioZh1j-372" value="PK" style="shape=partialRectangle;overflow=hidden;connectable=0;fillColor=none;top=0;left=0;bottom=0;right=0;fontStyle=1;fontSize=14;" vertex="1" parent="7ncmW5lJr1daxvioZh1j-371">
          <mxGeometry width="30" height="30" as="geometry">
            <mxRectangle width="30" height="30" as="alternateBounds" />
          </mxGeometry>
        </mxCell>
        <mxCell id="7ncmW5lJr1daxvioZh1j-373" value="order_id" style="shape=partialRectangle;overflow=hidden;connectable=0;fillColor=none;top=0;left=0;bottom=0;right=0;align=left;spacingLeft=6;fontStyle=5;fontSize=14;" vertex="1" parent="7ncmW5lJr1daxvioZh1j-371">
          <mxGeometry x="30" width="236" height="30" as="geometry">
            <mxRectangle width="236" height="30" as="alternateBounds" />
          </mxGeometry>
        </mxCell>
        <mxCell id="7ncmW5lJr1daxvioZh1j-374" value="" style="shape=partialRectangle;collapsible=0;dropTarget=0;pointerEvents=0;fillColor=none;points=[[0,0.5],[1,0.5]];portConstraint=eastwest;top=0;left=0;right=0;bottom=0;fontSize=14;" vertex="1" parent="7ncmW5lJr1daxvioZh1j-370">
          <mxGeometry y="60" width="266" height="30" as="geometry" />
        </mxCell>
        <mxCell id="7ncmW5lJr1daxvioZh1j-375" value="" style="shape=partialRectangle;overflow=hidden;connectable=0;fillColor=none;top=0;left=0;bottom=0;right=0;fontSize=14;" vertex="1" parent="7ncmW5lJr1daxvioZh1j-374">
          <mxGeometry width="30" height="30" as="geometry">
            <mxRectangle width="30" height="30" as="alternateBounds" />
          </mxGeometry>
        </mxCell>
        <mxCell id="7ncmW5lJr1daxvioZh1j-376" value="order_quantity" style="shape=partialRectangle;overflow=hidden;connectable=0;fillColor=none;top=0;left=0;bottom=0;right=0;align=left;spacingLeft=6;fontSize=14;" vertex="1" parent="7ncmW5lJr1daxvioZh1j-374">
          <mxGeometry x="30" width="236" height="30" as="geometry">
            <mxRectangle width="236" height="30" as="alternateBounds" />
          </mxGeometry>
        </mxCell>
        <mxCell id="7ncmW5lJr1daxvioZh1j-377" value="" style="shape=partialRectangle;collapsible=0;dropTarget=0;pointerEvents=0;fillColor=none;points=[[0,0.5],[1,0.5]];portConstraint=eastwest;top=0;left=0;right=0;bottom=0;fontSize=14;" vertex="1" parent="7ncmW5lJr1daxvioZh1j-370">
          <mxGeometry y="90" width="266" height="30" as="geometry" />
        </mxCell>
        <mxCell id="7ncmW5lJr1daxvioZh1j-378" value="" style="shape=partialRectangle;overflow=hidden;connectable=0;fillColor=none;top=0;left=0;bottom=0;right=0;fontSize=14;" vertex="1" parent="7ncmW5lJr1daxvioZh1j-377">
          <mxGeometry width="30" height="30" as="geometry">
            <mxRectangle width="30" height="30" as="alternateBounds" />
          </mxGeometry>
        </mxCell>
        <mxCell id="7ncmW5lJr1daxvioZh1j-379" value="price" style="shape=partialRectangle;overflow=hidden;connectable=0;fillColor=none;top=0;left=0;bottom=0;right=0;align=left;spacingLeft=6;fontSize=14;" vertex="1" parent="7ncmW5lJr1daxvioZh1j-377">
          <mxGeometry x="30" width="236" height="30" as="geometry">
            <mxRectangle width="236" height="30" as="alternateBounds" />
          </mxGeometry>
        </mxCell>
        <mxCell id="7ncmW5lJr1daxvioZh1j-380" value="" style="shape=partialRectangle;collapsible=0;dropTarget=0;pointerEvents=0;fillColor=none;points=[[0,0.5],[1,0.5]];portConstraint=eastwest;top=0;left=0;right=0;bottom=0;fontSize=14;" vertex="1" parent="7ncmW5lJr1daxvioZh1j-370">
          <mxGeometry y="120" width="266" height="30" as="geometry" />
        </mxCell>
        <mxCell id="7ncmW5lJr1daxvioZh1j-381" value="FK" style="shape=partialRectangle;overflow=hidden;connectable=0;fillColor=none;top=0;left=0;bottom=0;right=0;fontSize=14;" vertex="1" parent="7ncmW5lJr1daxvioZh1j-380">
          <mxGeometry width="30" height="30" as="geometry">
            <mxRectangle width="30" height="30" as="alternateBounds" />
          </mxGeometry>
        </mxCell>
        <mxCell id="7ncmW5lJr1daxvioZh1j-382" value="payment_id" style="shape=partialRectangle;overflow=hidden;connectable=0;fillColor=none;top=0;left=0;bottom=0;right=0;align=left;spacingLeft=6;fontSize=14;" vertex="1" parent="7ncmW5lJr1daxvioZh1j-380">
          <mxGeometry x="30" width="236" height="30" as="geometry">
            <mxRectangle width="236" height="30" as="alternateBounds" />
          </mxGeometry>
        </mxCell>
        <mxCell id="7ncmW5lJr1daxvioZh1j-383" value="" style="shape=partialRectangle;collapsible=0;dropTarget=0;pointerEvents=0;fillColor=none;points=[[0,0.5],[1,0.5]];portConstraint=eastwest;top=0;left=0;right=0;bottom=0;fontSize=14;" vertex="1" parent="7ncmW5lJr1daxvioZh1j-370">
          <mxGeometry y="150" width="266" height="30" as="geometry" />
        </mxCell>
        <mxCell id="7ncmW5lJr1daxvioZh1j-384" value="FK" style="shape=partialRectangle;overflow=hidden;connectable=0;fillColor=none;top=0;left=0;bottom=0;right=0;fontSize=14;" vertex="1" parent="7ncmW5lJr1daxvioZh1j-383">
          <mxGeometry width="30" height="30" as="geometry">
            <mxRectangle width="30" height="30" as="alternateBounds" />
          </mxGeometry>
        </mxCell>
        <mxCell id="7ncmW5lJr1daxvioZh1j-385" value="customer_id" style="shape=partialRectangle;overflow=hidden;connectable=0;fillColor=none;top=0;left=0;bottom=0;right=0;align=left;spacingLeft=6;fontSize=14;" vertex="1" parent="7ncmW5lJr1daxvioZh1j-383">
          <mxGeometry x="30" width="236" height="30" as="geometry">
            <mxRectangle width="236" height="30" as="alternateBounds" />
          </mxGeometry>
        </mxCell>
        <mxCell id="7ncmW5lJr1daxvioZh1j-386" value="" style="shape=partialRectangle;collapsible=0;dropTarget=0;pointerEvents=0;fillColor=none;points=[[0,0.5],[1,0.5]];portConstraint=eastwest;top=0;left=0;right=0;bottom=0;fontSize=14;" vertex="1" parent="7ncmW5lJr1daxvioZh1j-370">
          <mxGeometry y="180" width="266" height="20" as="geometry" />
        </mxCell>
        <mxCell id="7ncmW5lJr1daxvioZh1j-387" value="" style="shape=partialRectangle;overflow=hidden;connectable=0;fillColor=none;top=0;left=0;bottom=0;right=0;fontSize=14;" vertex="1" parent="7ncmW5lJr1daxvioZh1j-386">
          <mxGeometry width="30" height="20" as="geometry">
            <mxRectangle width="30" height="20" as="alternateBounds" />
          </mxGeometry>
        </mxCell>
        <mxCell id="7ncmW5lJr1daxvioZh1j-388" value="" style="shape=partialRectangle;overflow=hidden;connectable=0;fillColor=none;top=0;left=0;bottom=0;right=0;align=left;spacingLeft=6;fontSize=14;" vertex="1" parent="7ncmW5lJr1daxvioZh1j-386">
          <mxGeometry x="30" width="236" height="20" as="geometry">
            <mxRectangle width="236" height="20" as="alternateBounds" />
          </mxGeometry>
        </mxCell>
        <mxCell id="7ncmW5lJr1daxvioZh1j-389" value="" style="shape=partialRectangle;collapsible=0;dropTarget=0;pointerEvents=0;fillColor=none;points=[[0,0.5],[1,0.5]];portConstraint=eastwest;top=0;left=0;right=0;bottom=0;fontSize=14;" vertex="1" parent="7ncmW5lJr1daxvioZh1j-370">
          <mxGeometry y="200" width="266" height="20" as="geometry" />
        </mxCell>
        <mxCell id="7ncmW5lJr1daxvioZh1j-390" value="" style="shape=partialRectangle;overflow=hidden;connectable=0;fillColor=none;top=0;left=0;bottom=0;right=0;fontSize=14;" vertex="1" parent="7ncmW5lJr1daxvioZh1j-389">
          <mxGeometry width="30" height="20" as="geometry">
            <mxRectangle width="30" height="20" as="alternateBounds" />
          </mxGeometry>
        </mxCell>
        <mxCell id="7ncmW5lJr1daxvioZh1j-391" value="" style="shape=partialRectangle;overflow=hidden;connectable=0;fillColor=none;top=0;left=0;bottom=0;right=0;align=left;spacingLeft=6;fontSize=14;" vertex="1" parent="7ncmW5lJr1daxvioZh1j-389">
          <mxGeometry x="30" width="236" height="20" as="geometry">
            <mxRectangle width="236" height="20" as="alternateBounds" />
          </mxGeometry>
        </mxCell>
        <mxCell id="7ncmW5lJr1daxvioZh1j-392" style="edgeStyle=orthogonalEdgeStyle;rounded=0;orthogonalLoop=1;jettySize=auto;html=1;entryX=0;entryY=0.5;entryDx=0;entryDy=0;" edge="1" parent="1" source="7ncmW5lJr1daxvioZh1j-365" target="7ncmW5lJr1daxvioZh1j-371">
          <mxGeometry relative="1" as="geometry" />
        </mxCell>
        <mxCell id="7ncmW5lJr1daxvioZh1j-393" value="Belongs" style="edgeLabel;html=1;align=center;verticalAlign=middle;resizable=0;points=[];" vertex="1" connectable="0" parent="7ncmW5lJr1daxvioZh1j-392">
          <mxGeometry x="0.1625" y="-2" relative="1" as="geometry">
            <mxPoint as="offset" />
          </mxGeometry>
        </mxCell>
        <mxCell id="7ncmW5lJr1daxvioZh1j-396" style="edgeStyle=orthogonalEdgeStyle;rounded=0;orthogonalLoop=1;jettySize=auto;html=1;exitX=0;exitY=0.5;exitDx=0;exitDy=0;entryX=0;entryY=0.5;entryDx=0;entryDy=0;" edge="1" parent="1" source="7ncmW5lJr1daxvioZh1j-303" target="7ncmW5lJr1daxvioZh1j-383">
          <mxGeometry relative="1" as="geometry" />
        </mxCell>
        <mxCell id="7ncmW5lJr1daxvioZh1j-397" value="places" style="edgeLabel;html=1;align=center;verticalAlign=middle;resizable=0;points=[];" vertex="1" connectable="0" parent="7ncmW5lJr1daxvioZh1j-396">
          <mxGeometry x="0.508" y="-4" relative="1" as="geometry">
            <mxPoint x="-1" as="offset" />
          </mxGeometry>
        </mxCell>
      </root>
    </mxGraphModel>
  </diagram>
</mxfile>
